<svg width="51.7073" height="7.23745" overflow="visible" style="display: block;" viewBox="0 0 51.7073 7.23745" fill="none" xmlns="http://www.w3.org/2000/svg">
<g id="&#228;&#187;&#165;&#228;&#184;&#138;&#227;&#129;&#174;&#227;&#131;&#161;&#227;&#131;&#135;&#227;&#130;&#163;&#227;&#130;&#162;">
<path id="Vector" d="M51.7073 1.44748C51.6671 1.49774 51.6168 1.56308 51.5565 1.6435C51.4962 1.71889 51.4484 1.78422 51.4133 1.83951C51.2977 2.03553 51.1444 2.2617 50.9534 2.51802C50.7624 2.76932 50.5513 3.02063 50.3201 3.27193C50.0889 3.5182 49.8502 3.72929 49.6039 3.9052L48.8198 3.27947C48.9706 3.189 49.1189 3.08345 49.2646 2.96283C49.4104 2.8422 49.5436 2.71655 49.6642 2.58587C49.7899 2.45017 49.8979 2.32201 49.9884 2.20138C50.0839 2.08076 50.1568 1.9727 50.207 1.87721C50.1417 1.87721 50.0311 1.87721 49.8753 1.87721C49.7195 1.87721 49.5335 1.87721 49.3174 1.87721C49.1013 1.87721 48.8676 1.87721 48.6163 1.87721C48.37 1.87721 48.1237 1.87721 47.8775 1.87721C47.6312 1.87721 47.3975 1.87721 47.1763 1.87721C46.9602 1.87721 46.7717 1.87721 46.6109 1.87721C46.4551 1.87721 46.3445 1.87721 46.2792 1.87721C46.1234 1.87721 45.9751 1.88223 45.8344 1.89228C45.6937 1.90234 45.5353 1.9149 45.3594 1.92998V0.882054C45.5052 0.902158 45.656 0.919749 45.8118 0.934827C45.9676 0.949905 46.1234 0.957445 46.2792 0.957445C46.3445 0.957445 46.4601 0.957445 46.626 0.957445C46.7918 0.957445 46.9879 0.957445 47.214 0.957445C47.4452 0.957445 47.689 0.957445 47.9453 0.957445C48.2067 0.957445 48.4655 0.957445 48.7218 0.957445C48.9832 0.957445 49.2244 0.957445 49.4456 0.957445C49.6718 0.957445 49.8627 0.957445 50.0185 0.957445C50.1794 0.957445 50.2874 0.957445 50.3427 0.957445C50.4131 0.957445 50.4985 0.954932 50.5991 0.949906C50.6996 0.94488 50.7976 0.937341 50.8931 0.927288C50.9936 0.917237 51.0665 0.904671 51.1117 0.889593L51.7073 1.44748ZM48.6314 2.46525C48.6314 2.83718 48.6238 3.19654 48.6088 3.54333C48.5937 3.89013 48.5509 4.22436 48.4806 4.54602C48.4152 4.86266 48.3072 5.16422 48.1564 5.45071C48.0107 5.73719 47.8071 6.00859 47.5457 6.26492C47.2844 6.52125 46.9502 6.75747 46.5431 6.97359L45.661 6.25738C45.7816 6.21717 45.9098 6.1644 46.0455 6.09906C46.1812 6.0287 46.3169 5.94326 46.4526 5.84273C46.6938 5.67688 46.8873 5.50097 47.0331 5.315C47.1839 5.12904 47.2995 4.928 47.3799 4.71188C47.4603 4.49074 47.5156 4.252 47.5457 3.99567C47.5759 3.73432 47.591 3.45035 47.591 3.14376C47.591 3.02816 47.5885 2.91759 47.5834 2.81205C47.5784 2.70147 47.5633 2.58587 47.5382 2.46525H48.6314Z" fill="var(--fill-0, #323440)"/>
<path id="Vector_2" d="M37.7755 4.40279C38.1022 4.33242 38.4339 4.23693 38.7707 4.1163C39.1124 3.99065 39.4316 3.85746 39.7281 3.71674C40.0247 3.57098 40.2734 3.44031 40.4745 3.32471C40.7208 3.17393 40.962 3.00555 41.1982 2.81959C41.4395 2.6286 41.6606 2.43761 41.8617 2.24663C42.0627 2.05564 42.226 1.87721 42.3517 1.71135L43.0981 2.44264C42.9523 2.6085 42.7588 2.79195 42.5176 2.99299C42.2813 3.189 42.025 3.38753 41.7486 3.58857C41.4721 3.78459 41.1957 3.96301 40.9193 4.12384C40.7484 4.22939 40.5524 4.33745 40.3312 4.44802C40.1101 4.55357 39.8764 4.65911 39.6301 4.76466C39.3889 4.86518 39.1451 4.96068 38.8988 5.05114C38.6576 5.14161 38.4314 5.22203 38.2203 5.29239L37.7755 4.40279ZM40.384 3.91275L41.4093 3.71674V6.40063C41.4093 6.48607 41.4093 6.58408 41.4093 6.69465C41.4143 6.80522 41.4219 6.90574 41.4319 6.99621C41.442 7.09171 41.452 7.16458 41.4621 7.21484H40.3463C40.3564 7.16458 40.3614 7.09171 40.3614 6.99621C40.3664 6.90574 40.3714 6.80522 40.3765 6.69465C40.3815 6.58408 40.384 6.48607 40.384 6.40063V3.91275Z" fill="var(--fill-0, #323440)"/>
<path id="Vector_3" d="M31.377 0.859449C31.4976 0.879553 31.6308 0.894631 31.7766 0.904683C31.9223 0.914735 32.058 0.919761 32.1837 0.919761C32.2792 0.919761 32.4099 0.919761 32.5757 0.919761C32.7416 0.919761 32.925 0.919761 33.1261 0.919761C33.3271 0.919761 33.5256 0.919761 33.7217 0.919761C33.9227 0.919761 34.1061 0.919761 34.272 0.919761C34.4379 0.919761 34.5635 0.919761 34.649 0.919761C34.7796 0.919761 34.9153 0.914735 35.0561 0.904683C35.1968 0.894631 35.3325 0.879553 35.4632 0.859449V1.83198C35.3325 1.82193 35.1968 1.81691 35.0561 1.81691C34.9153 1.81188 34.7796 1.80937 34.649 1.80937C34.5635 1.80937 34.4379 1.80937 34.272 1.80937C34.1061 1.80937 33.9227 1.80937 33.7217 1.80937C33.5256 1.80937 33.3271 1.80937 33.1261 1.80937C32.9301 1.80937 32.7466 1.80937 32.5757 1.80937C32.4099 1.80937 32.2792 1.80937 32.1837 1.80937C32.053 1.80937 31.9148 1.81188 31.769 1.81691C31.6233 1.81691 31.4926 1.82193 31.377 1.83198V0.859449ZM30.5025 2.78944C30.6131 2.80452 30.7312 2.81708 30.8568 2.82713C30.9875 2.83216 31.1106 2.83467 31.2262 2.83467C31.2916 2.83467 31.4222 2.83467 31.6183 2.83467C31.8143 2.83467 32.0505 2.83467 32.3269 2.83467C32.6084 2.83467 32.9074 2.83467 33.2241 2.83467C33.5407 2.83467 33.8574 2.83467 34.174 2.83467C34.4957 2.83467 34.7947 2.83467 35.0711 2.83467C35.3476 2.83467 35.5813 2.83467 35.7723 2.83467C35.9683 2.83467 36.099 2.83467 36.1643 2.83467C36.2447 2.83467 36.3528 2.83216 36.4885 2.82713C36.6292 2.81708 36.7498 2.80452 36.8503 2.78944V3.76951C36.7599 3.75946 36.6493 3.75444 36.5186 3.75444C36.388 3.74941 36.2698 3.7469 36.1643 3.7469C36.099 3.7469 35.9683 3.7469 35.7723 3.7469C35.5813 3.7469 35.3476 3.7469 35.0711 3.7469C34.7947 3.7469 34.4957 3.7469 34.174 3.7469C33.8574 3.7469 33.5407 3.7469 33.2241 3.7469C32.9074 3.7469 32.6084 3.7469 32.3269 3.7469C32.0505 3.7469 31.8143 3.7469 31.6183 3.7469C31.4222 3.7469 31.2916 3.7469 31.2262 3.7469C31.1157 3.7469 30.9925 3.74941 30.8568 3.75444C30.7261 3.75946 30.608 3.767 30.5025 3.77705V2.78944ZM34.3625 3.31717C34.3625 3.8047 34.3197 4.24447 34.2343 4.6365C34.1489 5.0235 34.0257 5.37281 33.8649 5.68443C33.7795 5.85531 33.6588 6.03122 33.503 6.21216C33.3522 6.39309 33.1788 6.56398 32.9828 6.72481C32.7868 6.88564 32.5757 7.02135 32.3496 7.13192L31.4675 6.4911C31.7339 6.39058 31.9902 6.24231 32.2365 6.0463C32.4827 5.84526 32.6813 5.63417 32.832 5.41302C33.023 5.12654 33.1512 4.80739 33.2165 4.45556C33.2819 4.10374 33.3145 3.72428 33.3145 3.31717H34.3625ZM35.9155 0.339256C35.9808 0.429724 36.0487 0.537784 36.1191 0.663434C36.1945 0.789085 36.2648 0.914735 36.3302 1.04039C36.4005 1.16604 36.4608 1.27661 36.5111 1.3721L35.908 1.63597C35.8276 1.48016 35.7321 1.30425 35.6215 1.10824C35.5159 0.907196 35.4129 0.733799 35.3124 0.588044L35.9155 0.339256ZM36.8051 0C36.8705 0.0954943 36.9408 0.20858 37.0162 0.339256C37.0916 0.464907 37.1645 0.590557 37.2348 0.716207C37.3102 0.836832 37.3705 0.939865 37.4158 1.02531L36.8127 1.28917C36.7373 1.12834 36.6418 0.949917 36.5262 0.753902C36.4156 0.557888 36.3101 0.389516 36.2095 0.248788L36.8051 0Z" fill="var(--fill-0, #323440)"/>
<path id="Vector_4" d="M28.7762 1.0102C28.7259 1.09565 28.6706 1.20873 28.6103 1.34946C28.55 1.48516 28.4997 1.59825 28.4595 1.68872C28.3691 1.94002 28.256 2.21394 28.1203 2.51047C27.9846 2.80198 27.8313 3.096 27.6604 3.39254C27.4895 3.68907 27.301 3.97304 27.095 4.24445C26.8638 4.55104 26.5999 4.86014 26.3034 5.17175C26.0119 5.47834 25.6776 5.7799 25.3007 6.07643C24.9237 6.37297 24.4915 6.65694 24.004 6.92834L23.1596 6.1669C23.8482 5.83518 24.4412 5.46074 24.9388 5.04358C25.4364 4.6214 25.8812 4.14895 26.2732 3.62625C26.5798 3.23924 26.8236 2.85224 27.0045 2.46524C27.1905 2.07321 27.3463 1.68872 27.4719 1.31177C27.5121 1.21125 27.5473 1.09565 27.5775 0.96497C27.6127 0.829268 27.6378 0.71367 27.6529 0.618175L28.7762 1.0102ZM24.6297 1.74149C24.8207 1.85709 25.0217 1.98777 25.2328 2.13352C25.449 2.27425 25.6651 2.42 25.8812 2.57078C26.1023 2.72156 26.3109 2.86983 26.5069 3.01559C26.708 3.16134 26.8889 3.29453 27.0497 3.41515C27.4518 3.73179 27.8439 4.061 28.2258 4.40277C28.6078 4.74454 28.9521 5.07877 29.2587 5.40546L28.4822 6.26491C28.1504 5.88293 27.8137 5.53111 27.4719 5.20944C27.1302 4.88275 26.7607 4.55355 26.3637 4.22183C26.228 4.10623 26.0722 3.98058 25.8963 3.84488C25.7204 3.70918 25.5294 3.56594 25.3233 3.41515C25.1223 3.26437 24.9087 3.11359 24.6825 2.96281C24.4563 2.80701 24.2251 2.65623 23.9889 2.51047L24.6297 1.74149Z" fill="var(--fill-0, #323440)"/>
<path id="Vector_5" d="M19.3374 1.38718C19.2871 1.76916 19.2218 2.17627 19.1414 2.60851C19.061 3.04074 18.9529 3.47801 18.8172 3.9203C18.6715 4.42793 18.5006 4.86519 18.3046 5.23209C18.1085 5.59899 17.8924 5.88296 17.6562 6.084C17.425 6.28001 17.1712 6.37802 16.8948 6.37802C16.6183 6.37802 16.362 6.28504 16.1258 6.09908C15.8946 5.90809 15.7086 5.64674 15.5679 5.31502C15.4322 4.9833 15.3643 4.60635 15.3643 4.18416C15.3643 3.7469 15.4523 3.33477 15.6282 2.94776C15.8041 2.56076 16.0479 2.21899 16.3595 1.92246C16.6761 1.62089 17.043 1.38467 17.4602 1.21379C17.8824 1.0429 18.3372 0.95746 18.8248 0.95746C19.2922 0.95746 19.7118 1.03285 20.0838 1.18363C20.4607 1.33441 20.7824 1.54299 21.0488 1.80937C21.3151 2.07575 21.5187 2.38736 21.6594 2.74421C21.8002 3.10106 21.8705 3.48555 21.8705 3.89768C21.8705 4.42541 21.7625 4.89786 21.5463 5.31502C21.3302 5.73218 21.0086 6.07646 20.5813 6.34786C20.1592 6.61927 19.6314 6.80523 18.9982 6.90575L18.4327 6.00861C18.5785 5.99353 18.7066 5.97594 18.8172 5.95584C18.9278 5.93573 19.0333 5.91311 19.1339 5.88798C19.3751 5.82767 19.5988 5.74223 19.8048 5.63166C20.0159 5.51606 20.1994 5.37533 20.3552 5.20947C20.511 5.03859 20.6316 4.84006 20.717 4.61389C20.8075 4.38772 20.8528 4.13893 20.8528 3.86753C20.8528 3.57099 20.8075 3.29958 20.717 3.05331C20.6266 2.80703 20.4934 2.59343 20.3175 2.41249C20.1416 2.22653 19.928 2.0858 19.6767 1.99031C19.4254 1.88979 19.1364 1.83953 18.8097 1.83953C18.4076 1.83953 18.0533 1.9124 17.7467 2.05816C17.4401 2.19889 17.1812 2.38234 16.9702 2.60851C16.7591 2.83468 16.5982 3.07844 16.4877 3.33979C16.3821 3.60115 16.3293 3.84993 16.3293 4.08616C16.3293 4.33746 16.3595 4.54855 16.4198 4.71944C16.4801 4.88529 16.553 5.01094 16.6384 5.09639C16.7289 5.1768 16.8244 5.21701 16.9249 5.21701C17.0305 5.21701 17.1335 5.16424 17.234 5.05869C17.3396 4.94812 17.4426 4.78226 17.5431 4.56112C17.6436 4.33997 17.7442 4.06103 17.8447 3.72428C17.9603 3.36241 18.0583 2.97541 18.1387 2.56327C18.2191 2.15114 18.2769 1.74906 18.3121 1.35703L19.3374 1.38718Z" fill="var(--fill-0, #323440)"/>
<path id="Vector_6" d="M10.8936 2.41249H14.0298V3.32472H10.8936V2.41249ZM7.66689 5.94076H14.5651V6.85298H7.66689V5.94076ZM10.3809 0.241255H11.3535V6.44587H10.3809V0.241255Z" fill="var(--fill-0, #323440)"/>
<path id="Vector_7" d="M2.44264 1.44748L3.27948 1.04791C3.44031 1.22885 3.59863 1.42738 3.75444 1.6435C3.91024 1.85961 4.04846 2.07322 4.16908 2.28431C4.29473 2.49038 4.39525 2.68137 4.47064 2.85728L3.58104 3.33224C3.52073 3.16135 3.43026 2.96534 3.30963 2.74419C3.18901 2.51802 3.05331 2.29185 2.90253 2.06568C2.75174 1.83951 2.59845 1.63344 2.44264 1.44748ZM0 5.40547C0.256327 5.32003 0.552862 5.21197 0.889605 5.08129C1.23137 4.95062 1.58822 4.80989 1.96015 4.65911C2.3371 4.50833 2.70902 4.35755 3.07592 4.20676L3.28702 5.08883C2.95027 5.23961 2.6085 5.39039 2.26171 5.54117C1.91491 5.69195 1.57314 5.83771 1.2364 5.97844C0.904683 6.11916 0.595583 6.24984 0.3091 6.37047L0 5.40547ZM4.41787 4.7345L5.11146 4.09368C5.28235 4.27462 5.46579 4.46812 5.66181 4.67418C5.86285 4.88025 6.05886 5.09134 6.24985 5.30746C6.44587 5.51856 6.62681 5.72462 6.79266 5.92566C6.95852 6.12168 7.09422 6.30261 7.19977 6.46847L6.42325 7.22238C6.32776 7.05149 6.19959 6.8605 6.03876 6.64941C5.88295 6.44334 5.71207 6.22974 5.52611 6.00859C5.34517 5.78745 5.15669 5.56882 4.96068 5.3527C4.76969 5.13155 4.58875 4.92549 4.41787 4.7345ZM5.44318 0.580492L6.44587 0.670961C6.3554 1.52538 6.22472 2.29688 6.05384 2.98544C5.88295 3.66898 5.65427 4.27964 5.36779 4.81743C5.0813 5.35018 4.71943 5.8176 4.28217 6.21969C3.84993 6.62177 3.32471 6.96102 2.70651 7.23745C2.66128 7.17212 2.59594 7.08919 2.5105 6.98867C2.42505 6.88815 2.33459 6.78511 2.23909 6.67957C2.1436 6.57905 2.05815 6.49863 1.98276 6.43832C2.58589 6.20712 3.091 5.91812 3.49811 5.57133C3.91024 5.22453 4.24699 4.8124 4.50834 4.33493C4.76969 3.85243 4.97325 3.30208 5.119 2.68388C5.26475 2.06066 5.37281 1.35953 5.44318 0.580492ZM0.85191 0.610648L1.80183 0.572953L1.97523 5.47332L1.02531 5.51102L0.85191 0.610648Z" fill="var(--fill-0, #323440)"/>
</g>
</svg>
