<svg width="59.0225" height="25.0399" overflow="visible" style="display: block;" viewBox="0 0 59.0225 25.0399" fill="none" xmlns="http://www.w3.org/2000/svg">
<g id="550" style="mix-blend-mode:hard-light">
<path d="M8.71611 25.0399C7.35024 25.0399 6.13484 24.8877 5.06993 24.5834C4.00501 24.2791 3.05585 23.877 2.22243 23.3771C1.38902 22.8771 0.64821 22.3337 0 21.7469L2.36134 18.6821C2.84749 19.1385 3.36838 19.5515 3.92398 19.921C4.50274 20.2905 5.1278 20.584 5.79916 20.8013C6.49367 21.0187 7.23448 21.1274 8.02159 21.1274C8.90131 21.1274 9.67685 20.9535 10.3482 20.6057C11.0427 20.2579 11.5867 19.758 11.9803 19.1059C12.3739 18.4321 12.5706 17.6279 12.5706 16.6932C12.5706 15.3021 12.1655 14.2262 11.3552 13.4654C10.5681 12.7047 9.52637 12.3243 8.22995 12.3243C7.48914 12.3243 6.8525 12.4221 6.32005 12.6177C5.78759 12.7916 5.13938 13.1068 4.37542 13.5633L2.04881 12.1613L2.74332 0.42385H16.4946V4.46675H7.15346L6.6673 9.58557C7.17661 9.36821 7.67434 9.20519 8.1605 9.09651C8.64665 8.98783 9.17911 8.93349 9.75787 8.93349C11.1932 8.93349 12.5128 9.20519 13.7166 9.74859C14.9204 10.2703 15.8811 11.0962 16.5988 12.2265C17.3165 13.3568 17.6753 14.8022 17.6753 16.5628C17.6753 18.3452 17.247 19.8776 16.3904 21.16C15.557 22.4207 14.4574 23.3879 13.0915 24.0617C11.7488 24.7138 10.2903 25.0399 8.71611 25.0399Z" fill="url(#paint0_linear_0_141)"/>
<path d="M29.1987 25.0399C27.8329 25.0399 26.6175 24.8877 25.5526 24.5834C24.4876 24.2791 23.5385 23.877 22.7051 23.3771C21.8717 22.8771 21.1308 22.3337 20.4826 21.7469L22.844 18.6821C23.3301 19.1385 23.851 19.5515 24.4066 19.921C24.9854 20.2905 25.6104 20.584 26.2818 20.8013C26.9763 21.0187 27.7171 21.1274 28.5042 21.1274C29.3839 21.1274 30.1595 20.9535 30.8308 20.6057C31.5253 20.2579 32.0694 19.758 32.4629 19.1059C32.8565 18.4321 33.0533 17.6279 33.0533 16.6932C33.0533 15.3021 32.6481 14.2262 31.8379 13.4654C31.0508 12.7047 30.009 12.3243 28.7126 12.3243C27.9718 12.3243 27.3351 12.4221 26.8027 12.6177C26.2702 12.7916 25.622 13.1068 24.858 13.5633L22.5314 12.1613L23.2259 0.42385H36.9773V4.46675H27.6361L27.1499 9.58557C27.6592 9.36821 28.157 9.20519 28.6431 9.09651C29.1293 8.98783 29.6617 8.93349 30.2405 8.93349C31.6758 8.93349 32.9954 9.20519 34.1992 9.74859C35.403 10.2703 36.3638 11.0962 37.0814 12.2265C37.7991 13.3568 38.1579 14.8022 38.1579 16.5628C38.1579 18.3452 37.7296 19.8776 36.8731 21.16C36.0397 22.4207 34.94 23.3879 33.5742 24.0617C32.2314 24.7138 30.773 25.0399 29.1987 25.0399Z" fill="url(#paint1_linear_0_141)"/>
<path d="M50.3064 25.0399C48.5702 25.0399 47.0422 24.5725 45.7227 23.6379C44.4262 22.6815 43.4076 21.2687 42.6668 19.3994C41.9492 17.5083 41.5903 15.1717 41.5903 12.3895C41.5903 9.62904 41.9492 7.3359 42.6668 5.51007C43.4076 3.66251 44.4262 2.28228 45.7227 1.36937C47.0422 0.456456 48.5702 0 50.3064 0C52.0659 0 53.5938 0.467324 54.8902 1.40197C56.1866 2.31488 57.1937 3.68425 57.9113 5.51007C58.6521 7.3359 59.0225 9.62904 59.0225 12.3895C59.0225 15.1717 58.6521 17.5083 57.9113 19.3994C57.1937 21.2687 56.1866 22.6815 54.8902 23.6379C53.5938 24.5725 52.0659 25.0399 50.3064 25.0399ZM50.3064 21.2904C51.0704 21.2904 51.7417 21.0187 52.3205 20.4753C52.8993 19.9319 53.3507 19.019 53.6748 17.7366C53.9989 16.4324 54.161 14.6501 54.161 12.3895C54.161 10.1507 53.9989 8.40096 53.6748 7.14027C53.3507 5.85785 52.8993 4.96667 52.3205 4.46675C51.7417 3.94508 51.0704 3.68425 50.3064 3.68425C49.5888 3.68425 48.929 3.94508 48.3271 4.46675C47.7483 4.96667 47.2853 5.85785 46.9381 7.14027C46.5908 8.40096 46.4172 10.1507 46.4172 12.3895C46.4172 14.6501 46.5908 16.4324 46.9381 17.7366C47.2853 19.019 47.7483 19.9319 48.3271 20.4753C48.929 21.0187 49.5888 21.2904 50.3064 21.2904Z" fill="url(#paint2_linear_0_141)"/>
</g>
<defs>
<linearGradient id="paint0_linear_0_141" x1="59.0225" y1="12.5199" x2="0" y2="12.5199" gradientUnits="userSpaceOnUse">
<stop stop-color="#34626F"/>
<stop offset="1" stop-color="#1F353E"/>
</linearGradient>
<linearGradient id="paint1_linear_0_141" x1="59.0225" y1="12.5199" x2="0" y2="12.5199" gradientUnits="userSpaceOnUse">
<stop stop-color="#34626F"/>
<stop offset="1" stop-color="#1F353E"/>
</linearGradient>
<linearGradient id="paint2_linear_0_141" x1="59.0225" y1="12.5199" x2="0" y2="12.5199" gradientUnits="userSpaceOnUse">
<stop stop-color="#34626F"/>
<stop offset="1" stop-color="#1F353E"/>
</linearGradient>
</defs>
</svg>
