<svg width="44.0804" height="6.73989" overflow="visible" style="display: block;" viewBox="0 0 44.0804 6.73989" fill="none" xmlns="http://www.w3.org/2000/svg">
<g id="Group 624957">
<path id="Vector" d="M40.733 0.226161C40.7029 0.326681 40.6727 0.449819 40.6426 0.595573C40.6124 0.741328 40.5898 0.854413 40.5747 0.934829C40.5395 1.10571 40.4943 1.31429 40.439 1.56057C40.3888 1.80684 40.331 2.0682 40.2656 2.34463C40.2053 2.62106 40.1425 2.88492 40.0772 3.13623C40.0118 3.4026 39.9314 3.6916 39.8359 4.00321C39.7404 4.3098 39.6374 4.62393 39.5268 4.94559C39.4213 5.26223 39.3132 5.56631 39.2026 5.85781C39.0921 6.1443 38.984 6.40062 38.8784 6.62679L37.8305 6.27246C37.9411 6.08147 38.0592 5.85028 38.1849 5.57887C38.3105 5.30244 38.4311 5.0059 38.5467 4.68926C38.6674 4.37263 38.7779 4.0585 38.8784 3.74689C38.979 3.43527 39.0644 3.14628 39.1348 2.8799C39.185 2.70399 39.2328 2.52305 39.278 2.33709C39.3233 2.15113 39.3635 1.97019 39.3986 1.79428C39.4338 1.61837 39.464 1.45502 39.4891 1.30424C39.5193 1.14844 39.5419 1.01273 39.557 0.897134C39.572 0.756406 39.5821 0.615677 39.5871 0.474949C39.5921 0.33422 39.5896 0.221135 39.5796 0.135692L40.733 0.226161ZM38.8106 1.34948C39.1172 1.34948 39.4363 1.3344 39.7681 1.30424C40.0998 1.27409 40.434 1.23136 40.7707 1.17608C41.1075 1.12079 41.4417 1.05545 41.7734 0.980064V1.92244C41.4618 1.99281 41.1301 2.05312 40.7783 2.10338C40.4265 2.15364 40.0797 2.19385 39.7379 2.224C39.3961 2.24913 39.082 2.2617 38.7955 2.2617C38.6146 2.2617 38.4512 2.25919 38.3055 2.25416C38.1597 2.24411 38.019 2.23657 37.8833 2.23154L37.8607 1.28916C38.0567 1.30927 38.2251 1.32435 38.3658 1.3344C38.5065 1.34445 38.6548 1.34948 38.8106 1.34948ZM41.1779 2.50295C41.3889 2.48284 41.6227 2.46525 41.879 2.45017C42.1353 2.4351 42.3841 2.42756 42.6253 2.42756C42.8415 2.42756 43.0601 2.43258 43.2812 2.44263C43.5074 2.45269 43.7311 2.47028 43.9522 2.49541L43.9296 3.40009C43.7436 3.37496 43.5376 3.35486 43.3114 3.33978C43.0902 3.31967 42.8641 3.30962 42.6329 3.30962C42.3766 3.30962 42.1278 3.31716 41.8865 3.33224C41.6503 3.34229 41.4141 3.3624 41.1779 3.39255V2.50295ZM41.585 4.40278C41.5548 4.50833 41.5297 4.6189 41.5096 4.7345C41.4895 4.84507 41.4794 4.94308 41.4794 5.02852C41.4794 5.10894 41.497 5.18433 41.5322 5.25469C41.5674 5.32506 41.6227 5.38788 41.698 5.44317C41.7734 5.49343 41.8765 5.53364 42.0071 5.56379C42.1428 5.59395 42.3112 5.60903 42.5123 5.60903C42.7686 5.60903 43.0249 5.59646 43.2812 5.57133C43.5426 5.54118 43.809 5.50097 44.0804 5.45071L44.0427 6.4157C43.8316 6.44083 43.5979 6.46345 43.3416 6.48355C43.0852 6.50868 42.8063 6.52125 42.5047 6.52125C41.8714 6.52125 41.3864 6.41822 41.0497 6.21215C40.718 6.00106 40.5521 5.70452 40.5521 5.32254C40.5521 5.15166 40.5672 4.97826 40.5973 4.80235C40.6275 4.62644 40.6577 4.46309 40.6878 4.31231L41.585 4.40278Z" fill="var(--fill-0, #323440)"/>
<path id="Vector_2" d="M32.4176 0.263865C32.3974 0.419672 32.3773 0.588044 32.3572 0.76898C32.3422 0.949917 32.3296 1.11578 32.3195 1.26656C32.3145 1.47262 32.3045 1.72392 32.2894 2.02046C32.2793 2.31197 32.2693 2.61855 32.2592 2.94022C32.2542 3.26188 32.2467 3.57852 32.2366 3.89014C32.2316 4.20175 32.2291 4.47316 32.2291 4.70435C32.2291 4.95565 32.2743 5.15669 32.3648 5.30747C32.4603 5.45323 32.5859 5.55878 32.7417 5.62411C32.8975 5.68443 33.0734 5.71458 33.2695 5.71458C33.5811 5.71458 33.865 5.67437 34.1214 5.59396C34.3777 5.50852 34.6114 5.39543 34.8225 5.2547C35.0336 5.11397 35.2221 4.95063 35.3879 4.76466C35.5588 4.5787 35.7121 4.38269 35.8478 4.17662L36.5339 5.00591C36.4132 5.18685 36.2549 5.37784 36.0589 5.57888C35.8629 5.77992 35.6292 5.9684 35.3578 6.14431C35.0914 6.32022 34.7823 6.46346 34.4305 6.57403C34.0786 6.6846 33.6891 6.73989 33.2619 6.73989C32.8498 6.73989 32.4904 6.67455 32.1838 6.54387C31.8823 6.41822 31.6461 6.22221 31.4752 5.95583C31.3093 5.68443 31.2264 5.33512 31.2264 4.90791C31.2264 4.70184 31.2289 4.46813 31.2339 4.20678C31.2389 3.9404 31.2465 3.66397 31.2565 3.37748C31.2666 3.091 31.2741 2.81206 31.2792 2.54065C31.2842 2.26422 31.2892 2.01543 31.2942 1.79429C31.2993 1.57314 31.3018 1.39723 31.3018 1.26656C31.3018 1.08562 31.2942 0.909709 31.2792 0.738824C31.2641 0.562913 31.2389 0.399568 31.2038 0.248787L32.4176 0.263865Z" fill="var(--fill-0, #323440)"/>
<path id="Vector_3" d="M29.2813 1.13838C29.2411 1.18864 29.1908 1.25398 29.1305 1.3344C29.0702 1.40979 29.0224 1.47512 28.9873 1.53041C28.8717 1.72642 28.7184 1.9526 28.5274 2.20892C28.3364 2.46022 28.1253 2.71152 27.8941 2.96282C27.6629 3.2091 27.4242 3.42019 27.1779 3.5961L26.3938 2.97036C26.5446 2.8799 26.6929 2.77435 26.8386 2.65373C26.9844 2.5331 27.1176 2.40745 27.2382 2.27677C27.3638 2.14107 27.4719 2.01291 27.5624 1.89228C27.6579 1.77166 27.7308 1.6636 27.781 1.5681C27.7157 1.5681 27.6051 1.5681 27.4493 1.5681C27.2935 1.5681 27.1075 1.5681 26.8914 1.5681C26.6753 1.5681 26.4416 1.5681 26.1903 1.5681C25.944 1.5681 25.6977 1.5681 25.4514 1.5681C25.2052 1.5681 24.9715 1.5681 24.7503 1.5681C24.5342 1.5681 24.3457 1.5681 24.1849 1.5681C24.0291 1.5681 23.9185 1.5681 23.8532 1.5681C23.6974 1.5681 23.5491 1.57313 23.4084 1.58318C23.2676 1.59323 23.1093 1.6058 22.9334 1.62088V0.572953C23.0792 0.593057 23.2299 0.610648 23.3858 0.625726C23.5416 0.640804 23.6974 0.648344 23.8532 0.648344C23.9185 0.648344 24.0341 0.648344 24.2 0.648344C24.3658 0.648344 24.5618 0.648344 24.788 0.648344C25.0192 0.648344 25.263 0.648344 25.5193 0.648344C25.7807 0.648344 26.0395 0.648344 26.2958 0.648344C26.5572 0.648344 26.7984 0.648344 27.0196 0.648344C27.2457 0.648344 27.4367 0.648344 27.5925 0.648344C27.7534 0.648344 27.8614 0.648344 27.9167 0.648344C27.9871 0.648344 28.0725 0.64583 28.173 0.640804C28.2736 0.635779 28.3716 0.62824 28.4671 0.618187C28.5676 0.608135 28.6405 0.59557 28.6857 0.580492L29.2813 1.13838ZM26.2054 2.15615C26.2054 2.52807 26.1978 2.88743 26.1827 3.23423C26.1677 3.58103 26.1249 3.91526 26.0546 4.23692C25.9892 4.55356 25.8812 4.85512 25.7304 5.1416C25.5846 5.42809 25.3811 5.69949 25.1197 5.95582C24.8584 6.21215 24.5241 6.44837 24.117 6.66449L23.235 5.94828C23.3556 5.90807 23.4838 5.8553 23.6195 5.78996C23.7552 5.7196 23.8909 5.63415 24.0266 5.53363C24.2678 5.36778 24.4613 5.19186 24.6071 5.0059C24.7579 4.81994 24.8735 4.6189 24.9539 4.40278C25.0343 4.18163 25.0896 3.9429 25.1197 3.68657C25.1499 3.42522 25.165 3.14125 25.165 2.83466C25.165 2.71906 25.1625 2.60849 25.1574 2.50294C25.1524 2.39237 25.1373 2.27677 25.1122 2.15615H26.2054Z" fill="var(--fill-0, #323440)"/>
<path id="Vector_4" d="M20.5957 0.392012C20.5907 0.497558 20.5832 0.613157 20.5731 0.738807C20.5681 0.859432 20.5656 0.995134 20.5656 1.14591C20.5656 1.27659 20.5656 1.43491 20.5656 1.62087C20.5656 1.80684 20.5656 1.9928 20.5656 2.17876C20.5656 2.3597 20.5656 2.51299 20.5656 2.63864C20.5656 3.04072 20.5455 3.39255 20.5053 3.69411C20.4701 3.99567 20.4148 4.25953 20.3394 4.4857C20.264 4.71188 20.1711 4.91292 20.0605 5.08883C19.9549 5.25971 19.8318 5.42306 19.6911 5.57886C19.5252 5.7598 19.3342 5.92315 19.1181 6.0689C18.902 6.20963 18.6833 6.32774 18.4622 6.42323C18.2461 6.52375 18.045 6.60417 17.8591 6.66448L17.0675 5.83519C17.4444 5.74975 17.7837 5.63164 18.0853 5.48086C18.3918 5.32505 18.6582 5.12652 18.8844 4.88527C19.0151 4.73952 19.1206 4.59376 19.201 4.44801C19.2814 4.30225 19.3418 4.14142 19.382 3.96551C19.4272 3.78457 19.4574 3.58102 19.4724 3.35485C19.4925 3.12868 19.5026 2.86984 19.5026 2.57833C19.5026 2.44765 19.5026 2.29185 19.5026 2.11091C19.5026 1.92997 19.5026 1.75155 19.5026 1.57564C19.5026 1.39973 19.5026 1.25649 19.5026 1.14591C19.5026 0.995134 19.4976 0.859432 19.4875 0.738807C19.4825 0.613157 19.4724 0.497558 19.4574 0.392012H20.5957ZM17.0976 0.452324C17.0926 0.542792 17.0876 0.633261 17.0826 0.723729C17.0775 0.809171 17.075 0.912205 17.075 1.03283C17.075 1.08812 17.075 1.17858 17.075 1.30423C17.075 1.42988 17.075 1.57815 17.075 1.74904C17.075 1.9149 17.075 2.09081 17.075 2.27677C17.075 2.45771 17.075 2.63362 17.075 2.8045C17.075 2.97539 17.075 3.13119 17.075 3.27192C17.075 3.40762 17.075 3.51066 17.075 3.58102C17.075 3.67652 17.0775 3.78709 17.0826 3.91274C17.0876 4.03839 17.0926 4.14645 17.0976 4.23692H16.0045C16.0095 4.16655 16.017 4.06603 16.0271 3.93535C16.0371 3.80468 16.0422 3.68405 16.0422 3.57348C16.0422 3.50312 16.0422 3.40008 16.0422 3.26438C16.0422 3.12868 16.0422 2.97539 16.0422 2.8045C16.0422 2.62859 16.0422 2.45017 16.0422 2.26923C16.0422 2.08327 16.0422 1.90736 16.0422 1.7415C16.0422 1.57564 16.0422 1.42988 16.0422 1.30423C16.0422 1.17858 16.0422 1.08812 16.0422 1.03283C16.0422 0.962465 16.0397 0.871997 16.0346 0.761424C16.0296 0.645826 16.0221 0.542792 16.012 0.452324H17.0976Z" fill="var(--fill-0, #323440)"/>
<path id="Vector_5" d="M13.7811 1.55304C13.7408 1.6234 13.6981 1.70885 13.6529 1.80937C13.6077 1.90486 13.5674 2.00036 13.5323 2.09585C13.4669 2.317 13.3739 2.57081 13.2533 2.85729C13.1377 3.13875 12.992 3.43277 12.8161 3.73936C12.6452 4.04092 12.4466 4.33243 12.2205 4.61389C11.8586 5.04612 11.4364 5.43815 10.9539 5.78997C10.4764 6.1418 9.88337 6.45843 9.1747 6.73989L8.2851 5.94075C8.79775 5.78997 9.24004 5.61658 9.61197 5.42056C9.98389 5.22455 10.3081 5.01597 10.5845 4.79482C10.8609 4.56865 11.1072 4.32992 11.3233 4.07861C11.4992 3.8826 11.6601 3.66145 11.8058 3.41518C11.9516 3.16388 12.0772 2.91509 12.1828 2.66882C12.2883 2.42254 12.3587 2.20642 12.3939 2.02046H9.85322L10.2 1.16855C10.2704 1.16855 10.3784 1.16855 10.5242 1.16855C10.675 1.16855 10.8433 1.16855 11.0293 1.16855C11.2203 1.16855 11.4063 1.16855 11.5872 1.16855C11.7732 1.16855 11.934 1.16855 12.0697 1.16855C12.2104 1.16855 12.3059 1.16855 12.3562 1.16855C12.4718 1.16855 12.5874 1.16101 12.703 1.14593C12.8236 1.13085 12.9266 1.10824 13.0121 1.07808L13.7811 1.55304ZM11.3233 0.361874C11.2329 0.49255 11.1449 0.633279 11.0595 0.784059C10.974 0.93484 10.9087 1.05044 10.8634 1.13085C10.6926 1.43242 10.4815 1.74654 10.2302 2.07323C9.9839 2.3949 9.70244 2.70902 9.3858 3.01561C9.06916 3.31717 8.73242 3.5936 8.37557 3.8449L7.52366 3.21917C7.85538 3.0131 8.14689 2.80201 8.39819 2.58589C8.65452 2.36977 8.87566 2.15616 9.06162 1.94507C9.24759 1.72895 9.40591 1.52288 9.53658 1.32687C9.67228 1.12583 9.78788 0.947405 9.88337 0.791598C9.94369 0.696104 10.0065 0.572966 10.0718 0.422186C10.1372 0.266379 10.1875 0.125651 10.2226 0L11.3233 0.361874Z" fill="var(--fill-0, #323440)"/>
<path id="Vector_6" d="M3.1287 0.196024C3.10357 0.331727 3.06335 0.507637 3.00807 0.723756C2.95278 0.939875 2.87237 1.18364 2.76682 1.45504C2.6864 1.641 2.59343 1.83451 2.48788 2.03555C2.38736 2.23156 2.28432 2.40747 2.17878 2.56328C2.24412 2.53312 2.32705 2.50799 2.42757 2.48789C2.52809 2.46276 2.63112 2.44517 2.73666 2.43512C2.84723 2.42004 2.94524 2.4125 3.03069 2.4125C3.34733 2.4125 3.60868 2.50297 3.81475 2.6839C4.02584 2.86484 4.13138 3.13373 4.13138 3.49058C4.13138 3.5911 4.13138 3.71424 4.13138 3.85999C4.13641 4.00575 4.14144 4.15904 4.14646 4.31987C4.15149 4.47568 4.15651 4.62897 4.16154 4.77975C4.16657 4.93053 4.16908 5.06624 4.16908 5.18686H3.2644C3.27445 5.10142 3.27947 5.0009 3.27947 4.8853C3.2845 4.76468 3.28701 4.63902 3.28701 4.50835C3.29204 4.37767 3.29455 4.25202 3.29455 4.1314C3.29958 4.00575 3.30209 3.89266 3.30209 3.79214C3.30209 3.55089 3.23675 3.38503 3.10608 3.29456C2.98043 3.19907 2.8397 3.15132 2.68389 3.15132C2.4728 3.15132 2.2592 3.2041 2.04308 3.30964C1.83198 3.41016 1.65356 3.53079 1.5078 3.67152C1.39723 3.78209 1.28414 3.90523 1.16854 4.04093C1.05797 4.17663 0.93735 4.32992 0.806674 4.50081L0 3.89769C0.326691 3.59613 0.608147 3.30462 0.84437 3.02316C1.08562 2.7417 1.28917 2.46276 1.45503 2.18633C1.62089 1.9099 1.75659 1.63347 1.86214 1.35703C1.93753 1.15599 1.99784 0.947414 2.04308 0.731295C2.09334 0.51015 2.12349 0.304084 2.13354 0.113095L3.1287 0.196024ZM0.294018 0.889615C0.485007 0.919771 0.706151 0.942388 0.957452 0.957466C1.20875 0.972544 1.4299 0.980083 1.62089 0.980083C1.9526 0.980083 2.31448 0.972544 2.70651 0.957466C3.10357 0.942388 3.50564 0.917258 3.91275 0.882076C4.31986 0.841868 4.70686 0.791607 5.07376 0.731295L5.06622 1.60582C4.79985 1.641 4.51085 1.67367 4.19924 1.70383C3.89265 1.72896 3.57852 1.75158 3.25686 1.77168C2.94022 1.78676 2.63614 1.79932 2.34463 1.80938C2.05313 1.8144 1.79429 1.81692 1.56812 1.81692C1.4676 1.81692 1.34194 1.81692 1.19116 1.81692C1.04541 1.81189 0.894627 1.80686 0.738821 1.80184C0.583014 1.79179 0.434747 1.78173 0.294018 1.77168V0.889615ZM6.26493 3.0307C6.18451 3.05583 6.08902 3.0885 5.97845 3.12871C5.8729 3.16389 5.76484 3.20158 5.65427 3.24179C5.54873 3.27697 5.45323 3.31216 5.36779 3.34734C5.12654 3.44283 4.84006 3.55843 4.50834 3.69413C4.18165 3.82984 3.83988 3.98816 3.48303 4.16909C3.25686 4.28972 3.06587 4.40783 2.91006 4.52343C2.75426 4.63902 2.63614 4.75714 2.55573 4.87776C2.47531 4.99336 2.43511 5.12152 2.43511 5.26225C2.43511 5.3678 2.45772 5.45575 2.50296 5.52612C2.54819 5.59146 2.61604 5.64423 2.70651 5.68444C2.79698 5.72464 2.91006 5.75229 3.04576 5.76737C3.18147 5.78244 3.3423 5.78998 3.52826 5.78998C3.84993 5.78998 4.20426 5.77239 4.59126 5.73721C4.97827 5.697 5.33763 5.64423 5.66934 5.57889L5.63919 6.55142C5.47836 6.57153 5.2748 6.59163 5.02853 6.61174C4.78225 6.63687 4.52593 6.65446 4.25955 6.66451C3.9982 6.67456 3.74689 6.67959 3.50565 6.67959C3.11362 6.67959 2.7618 6.64189 2.45018 6.5665C2.13857 6.49111 1.89229 6.36295 1.71136 6.18201C1.53545 5.99605 1.44749 5.74224 1.44749 5.42057C1.44749 5.15922 1.50529 4.92299 1.62089 4.7119C1.74151 4.50081 1.89983 4.30982 2.09585 4.13894C2.29186 3.96805 2.50547 3.81476 2.73666 3.67906C2.97289 3.53833 3.20408 3.41016 3.43025 3.29456C3.66145 3.17394 3.87003 3.07091 4.056 2.98546C4.24196 2.90002 4.41535 2.82463 4.57619 2.75929C4.74204 2.68893 4.90036 2.61857 5.05115 2.5482C5.1969 2.48286 5.33763 2.42004 5.47333 2.35973C5.60903 2.29439 5.74725 2.22654 5.88798 2.15617L6.26493 3.0307Z" fill="var(--fill-0, #323440)"/>
</g>
</svg>
