<svg width="52.3128" height="7.12438" overflow="visible" style="display: block;" viewBox="0 0 52.3128 7.12438" fill="none" xmlns="http://www.w3.org/2000/svg">
<g id="Group 624956">
<path id="Vector" d="M45.8443 0.655895L46.3117 0.037695C46.4474 0.0829292 46.5881 0.140728 46.7339 0.211093C46.8847 0.276431 47.0279 0.344282 47.1636 0.414647C47.2993 0.485011 47.4099 0.555375 47.4953 0.625739L46.9977 1.30425C46.9224 1.23389 46.8168 1.1585 46.6811 1.07808C46.5504 0.997665 46.4122 0.922274 46.2665 0.85191C46.1207 0.77652 45.98 0.711182 45.8443 0.655895ZM45.2939 1.88476L45.7613 1.2741C45.887 1.3143 46.0227 1.36708 46.1685 1.43242C46.3192 1.49775 46.4625 1.5656 46.5982 1.63597C46.7389 1.70131 46.852 1.76413 46.9374 1.82444L46.4625 2.50296C46.377 2.43762 46.269 2.36725 46.1383 2.29186C46.0076 2.21647 45.8669 2.1436 45.7161 2.07323C45.5653 1.99784 45.4246 1.93502 45.2939 1.88476ZM45.4975 4.03338C45.6332 3.91276 45.7865 3.76951 45.9574 3.60366C46.1333 3.4378 46.3117 3.25937 46.4926 3.06838C46.6786 2.8774 46.857 2.68641 47.0279 2.49542L47.5104 3.091C47.2943 3.35738 47.0681 3.62879 46.8319 3.90522C46.5957 4.18165 46.3594 4.45054 46.1232 4.71189L45.4975 4.03338ZM48.3548 4.50834H49.2821V7.12438H48.3548V4.50834ZM45.4221 5.00591H52.3128V5.82013H45.4221V5.00591ZM48.3774 0L49.2519 0.271405C49.1162 0.562914 48.9529 0.849397 48.7619 1.13085C48.5709 1.41231 48.3699 1.67618 48.1588 1.92245C47.9477 2.16873 47.7366 2.38233 47.5255 2.56327C47.4752 2.50798 47.4074 2.44013 47.3219 2.35972C47.2365 2.2793 47.1485 2.19888 47.0581 2.11847C46.9676 2.03805 46.8897 1.97523 46.8244 1.92999C47.1309 1.70382 47.4224 1.41985 47.6989 1.07808C47.9803 0.731286 48.2065 0.371925 48.3774 0ZM47.8346 1.44749L48.7091 0.844371V4.03338H47.8346V1.44749ZM48.2794 0.829293H52.0037V1.53042H47.8572L48.2794 0.829293ZM47.8346 3.82983H52.1846V4.53849H47.8346V3.82983ZM48.1663 1.87722H51.7398V2.5105H48.1663V1.87722ZM48.1663 2.84975H51.7473V3.48303H48.1663V2.84975ZM49.5987 1.13839H50.4582V4.10123H49.5987V1.13839ZM50.0134 0.0527729L50.9934 0.211093C50.8628 0.427211 50.7296 0.635791 50.5939 0.836832C50.4582 1.03285 50.3375 1.20373 50.232 1.34949L49.4932 1.16855C49.5887 1.00772 49.6842 0.824267 49.7796 0.6182C49.8751 0.407107 49.953 0.218631 50.0134 0.0527729Z" fill="var(--fill-0, #323440)"/>
<path id="Vector_2" d="M38.1928 0.610655H44.4728V1.34194H38.1928V0.610655ZM38.4642 6.17446H44.2391V6.91328H38.4642V6.17446ZM39.7609 1.66612H42.8369V2.2994H39.7609V1.66612ZM39.7609 2.63111H42.8369V3.26439H39.7609V2.63111ZM37.7857 3.60365H44.8422V4.34247H37.7857V3.60365ZM39.5046 4.96821H43.1384V5.68442H39.5046V4.96821ZM39.2332 0.0376893H40.1379V4.00322H39.2332V0.0376893ZM42.5127 0.0452282H43.44V4.01076H42.5127V0.0452282ZM40.839 4.49325H41.7588V6.60418H40.839V4.49325ZM39.6931 3.81474L40.4545 4.09369C40.2937 4.36007 40.0977 4.61388 39.8665 4.85513C39.6403 5.09135 39.394 5.30747 39.1277 5.50348C38.8613 5.69447 38.5849 5.85279 38.2984 5.97844C38.2531 5.90808 38.1979 5.83018 38.1325 5.74473C38.0672 5.65929 37.9968 5.57636 37.9214 5.49595C37.8511 5.4105 37.7832 5.34265 37.7179 5.29239C37.9842 5.19187 38.2431 5.06622 38.4944 4.91544C38.7457 4.76466 38.9744 4.59378 39.1804 4.40279C39.3915 4.2118 39.5624 4.01578 39.6931 3.81474ZM42.9726 3.81474C43.1083 4.00573 43.2766 4.19169 43.4777 4.37263C43.6838 4.54854 43.9099 4.70937 44.1562 4.85513C44.4075 5.00088 44.6638 5.12151 44.9252 5.217C44.8598 5.27229 44.7895 5.34265 44.7141 5.42809C44.6387 5.50851 44.5658 5.59144 44.4955 5.67688C44.4301 5.76232 44.3748 5.84023 44.3296 5.91059C44.0582 5.78997 43.7943 5.63416 43.538 5.44317C43.2817 5.25218 43.0429 5.04109 42.8218 4.80989C42.6006 4.57367 42.4122 4.33242 42.2564 4.08615L42.9726 3.81474Z" fill="var(--fill-0, #323440)"/>
<path id="Vector_3" d="M30.3522 6.19708H37.2127V6.98867H30.3522V6.19708ZM32.0334 4.31986H35.5014V4.93806H32.0334V4.31986ZM32.0334 5.24716H35.5014V5.8729H32.0334V5.24716ZM31.6037 3.27947H35.9688V6.63434H35.0339V4.0183H32.4858V6.66449H31.6037V3.27947ZM30.405 0.88206H37.1599V1.66612H30.405V0.88206ZM33.3 0.0376893H34.1971V3.07592H33.3V0.0376893ZM32.8778 1.13839L33.6166 1.41733C33.4558 1.66863 33.2698 1.90988 33.0587 2.14108C32.8476 2.37227 32.6164 2.58839 32.3651 2.78943C32.1189 2.98545 31.86 3.16387 31.5886 3.32471C31.3172 3.48051 31.0383 3.6137 30.7518 3.72427C30.6864 3.61873 30.5985 3.4981 30.4879 3.3624C30.3824 3.22167 30.2818 3.10859 30.1863 3.02314C30.4578 2.93268 30.7241 2.8221 30.9855 2.69143C31.2468 2.56075 31.4956 2.41248 31.7318 2.24662C31.9731 2.08077 32.1892 1.90486 32.3802 1.71889C32.5762 1.53293 32.7421 1.33943 32.8778 1.13839ZM34.5665 1.14593C34.7073 1.34194 34.8781 1.53293 35.0792 1.71889C35.2802 1.89983 35.5014 2.07071 35.7426 2.23155C35.9889 2.38735 36.2477 2.52808 36.5191 2.65373C36.7905 2.77938 37.067 2.88242 37.3484 2.96283C37.2831 3.01812 37.2127 3.091 37.1373 3.18146C37.0619 3.26691 36.9916 3.35486 36.9262 3.44533C36.8659 3.5358 36.8106 3.61873 36.7604 3.69412C36.4689 3.58857 36.1849 3.45789 35.9085 3.30209C35.632 3.14628 35.3682 2.97037 35.1169 2.77436C34.8656 2.57332 34.6319 2.35971 34.4157 2.13354C34.2046 1.90737 34.0162 1.67115 33.8503 1.42487L34.5665 1.14593Z" fill="var(--fill-0, #323440)"/>
<path id="Vector_4" d="M25.7837 1.98278H26.6431V4.31234H25.7837V1.98278ZM25.7837 4.74206H26.6356V6.63436H25.7837V4.74206ZM23.7934 4.39527H28.7239V7.0867H27.8343V5.00593H24.6453V7.10178H23.7934V4.39527ZM22.8887 2.86485H29.5984V3.59613H22.8887V2.86485ZM24.2985 5.3678H28.2414V5.90307H24.2985V5.3678ZM24.2985 6.28003H28.2414V6.90576H24.2985V6.28003ZM27.9398 1.43243L28.4148 2.03555C28.1182 2.08079 27.7966 2.12351 27.4498 2.16372C27.108 2.1989 26.7512 2.22905 26.3792 2.25418C26.0123 2.27429 25.6429 2.29188 25.271 2.30696C24.8991 2.31701 24.5422 2.32455 24.2005 2.32957C24.1904 2.23911 24.1653 2.13607 24.1251 2.02047C24.0899 1.89985 24.0547 1.79933 24.0195 1.71891C24.3563 1.70886 24.7056 1.6963 25.0675 1.68122C25.4293 1.66614 25.7837 1.64604 26.1305 1.62091C26.4773 1.59578 26.8039 1.56813 27.1105 1.53798C27.4221 1.50279 27.6986 1.46761 27.9398 1.43243ZM25.3766 3.01563L26.0626 3.33227C25.8967 3.52828 25.7007 3.71927 25.4746 3.90523C25.2534 4.08617 25.0172 4.25957 24.7659 4.42542C24.5146 4.58626 24.2532 4.73201 23.9818 4.86269C23.7155 4.99336 23.4541 5.10645 23.1978 5.20194C23.1525 5.13158 23.0973 5.05368 23.0319 4.96823C22.9666 4.87777 22.8962 4.78981 22.8208 4.70437C22.7505 4.61893 22.6826 4.54605 22.6173 4.48574C22.9641 4.39024 23.3109 4.2671 23.6577 4.11632C24.0045 3.96052 24.3286 3.78963 24.6302 3.60367C24.9318 3.41268 25.1805 3.21667 25.3766 3.01563ZM27.0276 2.98547C27.2236 3.18651 27.4724 3.37499 27.774 3.5509C28.0806 3.72178 28.4123 3.87508 28.7691 4.01078C29.126 4.14648 29.4828 4.25203 29.8397 4.32742C29.7492 4.41789 29.6487 4.53348 29.5381 4.67421C29.4275 4.81494 29.3421 4.93808 29.2818 5.04362C28.9199 4.93808 28.558 4.79735 28.1962 4.62144C27.8393 4.4405 27.5051 4.23695 27.1935 4.01078C26.8818 3.77958 26.6104 3.53331 26.3792 3.27195L27.0276 2.98547ZM23.8763 2.35973L24.6528 2.20895C24.7332 2.3145 24.8036 2.43512 24.8639 2.57082C24.9242 2.7015 24.9644 2.81961 24.9845 2.92516L24.1703 3.11363C24.1552 3.00809 24.1201 2.88495 24.0648 2.74422C24.0095 2.60349 23.9467 2.47533 23.8763 2.35973ZM27.774 2.11848L28.6862 2.33711C28.5857 2.49795 28.4851 2.65124 28.3846 2.79699C28.2891 2.93772 28.2037 3.06086 28.1283 3.16641L27.4121 2.94024C27.4774 2.81961 27.5428 2.68391 27.6081 2.53313C27.6785 2.37732 27.7338 2.23911 27.774 2.11848ZM25.7837 0.045249H26.6959V1.0781H25.7837V0.045249ZM22.9716 0.557903H29.4853V2.05817H28.6033V1.32688H23.816V2.05817H22.9716V0.557903Z" fill="var(--fill-0, #323440)"/>
<path id="Vector_5" d="M19.3828 1.28162C19.3326 1.6636 19.2672 2.07071 19.1868 2.50294C19.1064 2.93518 18.9983 3.37245 18.8626 3.81474C18.7169 4.32236 18.546 4.75963 18.35 5.12653C18.154 5.49343 17.9378 5.7774 17.7016 5.97844C17.4704 6.17445 17.2166 6.27246 16.9402 6.27246C16.6637 6.27246 16.4074 6.17948 16.1712 5.99351C15.94 5.80253 15.754 5.54117 15.6133 5.20946C15.4776 4.87774 15.4098 4.50079 15.4098 4.0786C15.4098 3.64134 15.4977 3.2292 15.6736 2.8422C15.8495 2.4552 16.0933 2.11343 16.4049 1.81689C16.7215 1.51533 17.0884 1.27911 17.5056 1.10822C17.9278 0.93734 18.3826 0.851897 18.8702 0.851897C19.3376 0.851897 19.7573 0.927288 20.1292 1.07807C20.5061 1.22885 20.8278 1.43743 21.0942 1.70381C21.3606 1.97019 21.5641 2.2818 21.7048 2.63865C21.8456 2.99549 21.9159 3.37998 21.9159 3.79212C21.9159 4.31985 21.8079 4.7923 21.5918 5.20946C21.3756 5.62662 21.054 5.9709 20.6268 6.2423C20.2046 6.51371 19.6768 6.69967 19.0436 6.80019L18.4781 5.90305C18.6239 5.88797 18.7521 5.87038 18.8626 5.85027C18.9732 5.83017 19.0787 5.80755 19.1793 5.78242C19.4205 5.72211 19.6442 5.63667 19.8502 5.5261C20.0613 5.4105 20.2448 5.26977 20.4006 5.10391C20.5564 4.93302 20.677 4.7345 20.7625 4.50833C20.8529 4.28216 20.8982 4.03337 20.8982 3.76196C20.8982 3.46543 20.8529 3.19402 20.7625 2.94775C20.672 2.70147 20.5388 2.48787 20.3629 2.30693C20.187 2.12097 19.9734 1.98024 19.7221 1.88474C19.4708 1.78422 19.1818 1.73396 18.8551 1.73396C18.453 1.73396 18.0987 1.80684 17.7921 1.9526C17.4855 2.09332 17.2267 2.27677 17.0156 2.50294C16.8045 2.72912 16.6436 2.97288 16.5331 3.23423C16.4275 3.49558 16.3747 3.74437 16.3747 3.98059C16.3747 4.2319 16.4049 4.44299 16.4652 4.61387C16.5255 4.77973 16.5984 4.90538 16.6838 4.99082C16.7743 5.07124 16.8698 5.11145 16.9703 5.11145C17.0759 5.11145 17.1789 5.05868 17.2794 4.95313C17.385 4.84256 17.488 4.6767 17.5885 4.45555C17.6891 4.23441 17.7896 3.95546 17.8901 3.61872C18.0057 3.25685 18.1037 2.86984 18.1841 2.45771C18.2645 2.04558 18.3223 1.6435 18.3575 1.25147L19.3828 1.28162Z" fill="var(--fill-0, #323440)"/>
<path id="Vector_6" d="M9.0845 2.66128H13.1857V3.49811H9.0845V2.66128ZM9.0845 4.27463H13.1857V5.11146H9.0845V4.27463ZM9.0845 5.89552H13.1857V6.73235H9.0845V5.89552ZM8.47384 1.01777H13.9472V7.10176H12.9897V1.88476H9.38606V7.11684H8.47384V1.01777ZM10.6149 0.0301569L11.7081 0.150781C11.6176 0.397056 11.5221 0.638305 11.4216 0.874528C11.3211 1.11075 11.2281 1.3143 11.1427 1.48519L10.3134 1.33441C10.3536 1.20876 10.3938 1.07054 10.434 0.919762C10.4742 0.763955 10.5094 0.610662 10.5395 0.459881C10.5747 0.304075 10.5998 0.160833 10.6149 0.0301569Z" fill="var(--fill-0, #323440)"/>
<path id="Vector_7" d="M4.31232 0.0603137H5.22455V6.37802H4.31232V0.0603137ZM2.38233 6.00107C2.73415 5.97594 3.13875 5.94327 3.59612 5.90306C4.05348 5.85783 4.53598 5.81008 5.04361 5.75982C5.55626 5.70453 6.06138 5.65427 6.55895 5.60904L6.57403 6.4911C6.10159 6.55142 5.62411 6.60922 5.14162 6.6645C4.65912 6.71979 4.19421 6.77256 3.7469 6.82282C3.30461 6.87308 2.90001 6.91832 2.53311 6.95852L2.38233 6.00107ZM5.50349 4.84006L6.34786 4.59881C6.45843 4.83001 6.56901 5.08382 6.67958 5.36025C6.79015 5.63166 6.89318 5.89552 6.98868 6.15185C7.08417 6.40315 7.15956 6.62681 7.21485 6.82282L6.30263 7.11684C6.25739 6.92586 6.18954 6.69968 6.09907 6.43833C6.01363 6.17195 5.91814 5.90055 5.81259 5.62412C5.71207 5.34769 5.60904 5.08633 5.50349 4.84006ZM3.65643 2.21648V3.69413H5.85782V2.21648H3.65643ZM2.77436 1.43996H6.8002V4.47065H2.77436V1.43996ZM0.105546 0.655897L0.731286 0.173399C1.09819 0.469934 1.39221 0.779034 1.61335 1.1007C1.8345 1.41734 2.00036 1.74403 2.11093 2.08077C2.22653 2.41752 2.30192 2.7618 2.3371 3.11362C2.37228 3.46544 2.38987 3.8248 2.38987 4.1917C2.38987 4.5385 2.37731 4.87775 2.35218 5.20947C2.33207 5.53616 2.28935 5.83018 2.22401 6.09154C2.1637 6.35289 2.07323 6.56398 1.95261 6.72481C1.89732 6.79518 1.82947 6.85549 1.74905 6.90575C1.66864 6.96104 1.58068 7.00125 1.48519 7.02638C1.33441 7.05653 1.1786 7.07412 1.01777 7.07915C0.856936 7.0892 0.686052 7.09171 0.505115 7.08669C0.500089 6.94093 0.477472 6.79267 0.437264 6.64189C0.402081 6.4911 0.344282 6.35038 0.263866 6.2197C0.454855 6.23478 0.615687 6.24232 0.746364 6.24232C0.87704 6.23729 0.9851 6.23227 1.07054 6.22724C1.17106 6.21216 1.24897 6.16693 1.30425 6.09154C1.36456 6.02117 1.4098 5.89301 1.43995 5.70705C1.47011 5.52108 1.49273 5.29491 1.50781 5.02853C1.52288 4.76215 1.53042 4.47567 1.53042 4.16908C1.53042 3.82229 1.51283 3.49308 1.47765 3.18147C1.44247 2.86986 1.37462 2.57081 1.2741 2.28433C1.17358 1.99282 1.03033 1.71136 0.844371 1.43996C0.658408 1.16855 0.412133 0.907198 0.105546 0.655897ZM1.62089 2.90253L2.29186 3.3021C2.16621 3.54334 2.01041 3.79465 1.82444 4.056C1.63848 4.31735 1.43995 4.56363 1.22886 4.79482C1.02279 5.02602 0.816728 5.22455 0.610661 5.39041C0.540297 5.27983 0.447316 5.15921 0.331717 5.02853C0.221145 4.89786 0.110572 4.79482 0 4.71943C0.201041 4.58876 0.404594 4.42541 0.610661 4.2294C0.821754 4.02836 1.01526 3.81224 1.19117 3.58104C1.36708 3.34984 1.51032 3.12367 1.62089 2.90253ZM1.92245 0.203555L2.72159 0.603124C2.45521 1.06552 2.13857 1.51283 1.77167 1.94507C1.4098 2.37228 1.03033 2.73416 0.633278 3.03069C0.588044 2.97038 0.527732 2.90504 0.452342 2.83468C0.381977 2.75929 0.306587 2.68641 0.226171 2.61604C0.150781 2.54568 0.0779033 2.48788 0.00753903 2.44265C0.263866 2.26171 0.510141 2.0481 0.746364 1.80183C0.987613 1.55555 1.20876 1.2942 1.4098 1.01777C1.61084 0.741339 1.78172 0.469934 1.92245 0.203555Z" fill="var(--fill-0, #323440)"/>
</g>
</svg>
