<svg width="180" height="136.378" overflow="visible" style="display: block;" viewBox="0 0 180 136.378" fill="none" xmlns="http://www.w3.org/2000/svg">
<g id="Group 624953">
<path id="Vector" d="M73.4512 132.047C73.8749 132.04 74.2251 132.044 74.5767 132.266C75.0056 132.806 76.2546 135.683 75.7073 136.249C75.1034 136.295 74.979 135.976 74.6527 135.554C74.4744 135.551 73.7057 135.533 73.5665 135.584C73.1389 135.741 72.4689 136.422 71.9897 136.354L71.899 136.161C71.9727 135.198 72.9791 132.926 73.4512 132.047Z" fill="var(--fill-0, black)"/>
<path id="Vector_2" d="M78.6808 133.283C79.2374 133.552 79.5916 134.395 79.9185 134.977C80.1756 134.329 80.5957 132.818 81.6465 133.548C81.6002 134.079 80.3176 136.089 79.7481 136.31C79.2407 136.091 79.07 135.429 78.8504 134.894L78.812 134.847L78.6983 134.856C78.4837 135.49 78.3824 136.329 77.6056 136.303C76.847 135.855 76.7688 134.582 76.1089 133.896C75.9985 133.781 75.9687 133.658 75.9524 133.501L76.1145 133.415C77.3873 133.499 77.3038 133.785 77.6926 134.94C77.9922 134.396 78.3114 133.773 78.6808 133.283Z" fill="var(--fill-0, black)"/>
<path id="Vector_3" d="M84.9221 133.389C84.9534 133.394 85.077 133.498 85.1087 133.523C85.1841 134.321 85.1441 135.472 85.1392 136.298C84.3771 136.255 82.8333 136.337 82.3132 136.165C82.012 135.852 81.8228 135.586 81.7651 135.147C81.4783 132.958 83.5411 133.567 84.9221 133.389ZM83.7097 135.46C83.9293 135.339 84.0649 135.108 84.063 134.856C84.0611 134.606 83.9219 134.376 83.7006 134.259C83.4791 134.14 83.2109 134.154 83.0018 134.292C82.6963 134.495 82.6049 134.902 82.795 135.216C82.985 135.529 83.3886 135.637 83.7097 135.46Z" fill="var(--fill-0, black)"/>
<path id="Vector_4" d="M89.2627 133.387C89.6366 133.391 89.9601 133.386 90.3196 133.512C90.8282 133.69 91.2572 134.349 91.0755 134.872C90.5229 135.159 89.6979 134.766 89.0976 135.027C88.976 135.385 88.9587 135.225 89.0816 135.524C89.7483 135.803 90.1896 135.432 90.8507 135.346L90.9458 135.334C91.0246 135.453 91.001 135.452 91.0266 135.609C90.6552 136.319 89.6591 136.564 88.9531 136.231C88.5431 136.032 88.2376 135.667 88.1138 135.229C87.8369 134.284 88.4031 133.659 89.2627 133.387Z" fill="var(--fill-0, black)"/>
<path id="Vector_5" d="M96.4662 133.383C97.2601 133.426 98.2714 133.745 98.4336 134.655C97.9119 135.294 96.5193 134.603 96.1058 135.213C96.4762 136.112 97.2051 135.409 98.0581 135.383L98.2083 135.401L98.2393 135.562C97.6426 136.346 95.5611 136.92 95.3328 135.549C95.1346 134.352 95.1776 133.671 96.4662 133.383Z" fill="var(--fill-0, black)"/>
<path id="Vector_6" d="M91.7919 133.338C92.6549 133.573 93.549 133.352 94.2359 133.594C94.8977 133.825 94.9157 136.133 94.0416 136.362C93.5851 135.967 93.6872 135.497 93.6982 134.932C93.6972 134.578 93.7092 134.581 93.5931 134.253C92.1213 133.542 92.9393 135.666 92.3816 136.304C92.0432 136.369 92.1704 136.363 91.8149 136.228C91.6637 135.956 91.7128 133.725 91.7919 133.338Z" fill="var(--fill-0, black)"/>
<path id="Vector_7" d="M102.582 133.361C102.901 133.387 103.505 133.415 103.716 133.627C103.604 133.815 102.785 134.14 102.515 134.282C102.718 134.499 103.967 134.486 103.951 135.192C103.933 135.998 103.193 136.201 102.529 136.292C102.081 136.259 101.605 136.325 101.394 135.896C101.683 135.242 102.318 135.818 102.745 135.564C102.505 135.007 101.686 134.925 101.566 134.134C101.775 133.664 102.105 133.557 102.582 133.361Z" fill="var(--fill-0, black)"/>
<path id="Vector_8" d="M99.7495 133.377C100.169 133.393 100.389 133.404 100.801 133.48L100.921 133.66C100.736 134.315 100.263 133.788 99.7025 134.102L99.7435 134.285C101.405 134.658 101.61 135.97 100.063 136.282C99.6294 136.271 99.1989 136.309 98.8264 136.117C98.7123 135.788 98.7053 135.939 98.7803 135.649L98.9506 135.568C99.344 135.636 99.5903 135.624 99.9858 135.624L100.052 135.537C99.6104 135.182 99.1608 134.937 98.8504 134.483C98.7563 133.806 99.1508 133.608 99.7495 133.377Z" fill="var(--fill-0, black)"/>
<path id="Vector_9" d="M85.5825 133.393C86.1735 133.399 86.5784 133.641 87.1054 133.534C87.4654 133.461 87.5559 133.389 87.8274 133.664L87.8089 133.833C87.3024 134.459 87.0939 133.975 86.6868 134.833C86.6887 135.358 86.8111 135.959 86.3973 136.299C86.0689 136.3 86.076 136.282 85.802 136.125C85.37 135.526 85.6538 134.397 85.5825 133.393Z" fill="var(--fill-0, black)"/>
<path id="Vector_10" d="M152.232 80.6503C152.354 80.754 152.31 80.7149 152.374 80.886C152.253 81.2079 151.994 81.3895 151.733 81.6293C151.544 81.4927 151.601 81.5824 151.561 81.3489C151.695 81.0253 151.95 80.8759 152.232 80.6503Z" fill="var(--fill-0, black)"/>
<path id="Vector_11" d="M8.10666 27.7341C9.19628 26.0836 12.248 23.3037 13.8313 21.9772C24.4172 13.1083 38.0111 7.66968 51.3008 4.38468C52.717 4.05497 54.1139 3.64126 55.5368 3.34188C57.2653 2.97813 59.0462 2.76447 60.7731 2.41383C66.9279 1.16217 73.2891 0.768579 79.5405 0.225503C80.2244 0.166029 80.9536 0.136693 81.6413 0.108658C91.5805 -0.295646 101.44 0.4631 111.282 1.80717C112.717 2.00312 114.147 2.36477 115.574 2.61118C129.473 5.01157 143.907 9.87152 155.686 17.6588C166.892 25.0683 176.743 36.5427 175.056 50.7483C174.912 51.956 174.679 53.1686 174.413 54.3579C178.344 47.2923 179.424 41.1915 178.502 33.2392C178.19 30.5424 178.078 27.7974 177.315 25.1566C177.094 24.3236 176.803 23.4348 176.567 22.5892C176.109 22.7602 175.901 22.878 175.412 22.8551L175.188 22.7254C175.079 21.7769 174.899 18.6091 175.269 17.8129L175.479 17.6523C176.284 17.7686 178.358 20.8711 178.862 21.6411C178.489 21.7973 178.115 21.9479 177.737 22.0929C179.862 29.2608 180.657 37.7906 179.399 45.1839C179.236 46.1451 178.823 47.161 178.53 48.0817C177.227 52.1882 175.069 55.8667 172.673 59.4186C171.644 60.9436 170.907 62.9272 169.755 64.4282C166.172 69.3978 161.583 73.5554 156.575 77.045C154.508 78.4852 150.183 81.2608 147.942 82.1307C145.849 87.7644 140.729 92.6545 135.796 95.8886C135.273 96.231 135.227 96.6095 134.856 96.9459C134.541 97.2322 134.545 96.7717 133.809 97.2102C132.31 98.1033 131.063 98.7862 129.441 99.452C127.548 105.786 123.084 109.251 117.468 112.366C117.099 112.571 117.061 113.146 116.427 113.322L116.345 113.23L116.367 112.912C116.11 112.985 114.962 113.618 114.544 113.794C112.544 114.639 110.988 115.263 108.875 115.806C108.418 116.386 107.059 118.231 106.599 118.582C102.776 121.499 97.8717 123.129 93.169 123.781C84.9962 124.914 71.5727 123.412 66.8908 115.701C61.8505 114.46 55.6585 111.211 51.8146 107.663C50.5048 106.455 49.3267 104.658 48.2049 103.628C48.1445 102.706 47.4626 101.856 47.1559 100.967C46.9772 100.448 46.8543 100.002 46.7057 99.479C46.0501 99.2147 45.4813 98.9514 44.7761 98.8523C44.3284 98.8803 44.1959 98.9544 43.908 98.605L44.2228 98.5168L44.1932 98.3967C43.6082 98.0022 42.3597 97.0901 41.6535 96.9058C41.5501 96.8798 41.4985 97.1011 41.0776 97.0039C40.8043 96.7606 40.7694 96.4933 40.6589 96.1339C36.9016 93.807 33.5724 90.7221 30.9776 87.1987C30.6236 86.7171 29.9903 86.1314 29.5661 85.6608L29.7034 85.3995C29.6708 85.1912 28.5111 83.0546 28.3105 82.609C20.1191 79.0314 9.56292 70.9481 4.90578 63.3589L1.05354 63.3453C1.96702 63.2711 2.6112 63.2838 3.51059 63.0575L4.70754 63.0087C-1.8931 52.9395 -1.46145 40.9616 5.43012 31.1287C5.78194 30.6267 7.45197 28.4688 7.53797 28.1707C7.34524 27.9692 7.11155 28.0365 6.75312 28.026C6.76433 27.8586 6.79537 27.839 6.86385 27.6743L8.10666 27.7341ZM31.2811 63.0795C37.0527 54.3585 51.6882 48.0843 61.4877 45.6225C78.0207 41.469 97.4381 41.2983 113.961 45.4488C118.783 46.679 123.491 48.3205 128.032 50.3553C135.593 53.6932 144.49 60.1297 147.764 68.0731C149.227 71.6227 150.014 76.9617 148.407 80.5731C152.756 78.4291 157.014 75.2842 160.771 72.2606C173.755 61.8114 179.021 45.2503 168.252 30.9698C156.638 15.5697 136.061 7.98807 117.733 4.2383C116.082 3.90048 114.355 3.47475 112.691 3.23455C110.306 2.90674 107.917 2.60717 105.524 2.33573C103.886 2.13738 102.239 1.87916 100.594 1.75421C72.8867 -0.349313 39.4213 4.20376 16.6688 21.2593C9.53129 26.6097 2.80553 34.7349 1.5358 43.8158C0.76345 49.3387 1.67496 54.6933 4.19842 59.6683C4.79765 60.8495 5.38586 61.9558 6.18553 63.016L7.07601 63.0668C7.38439 63.2908 7.36476 63.2872 7.73621 63.3568L6.33992 63.366C8.41734 66.5506 16.0139 74.6885 19.5485 75.7938C20.696 77.352 25.9344 80.0864 27.8591 80.9968C26.4311 78.2704 26.677 73.328 27.5229 70.3815C28.4047 67.3101 29.4942 65.9887 30.8213 63.3673L25.3005 63.3426C26.3058 63.2683 28.466 63.3225 29.3672 63.0616C30.0972 63.0093 30.5441 63.0353 31.2811 63.0795ZM29.3462 81.7745C30.4531 82.3627 37.1853 85.5867 38.0275 85.4486C38.1373 85.2513 38.2288 85.0881 38.3538 84.8989L38.5601 84.8829L38.6631 85.001C38.5461 85.2103 38.4876 85.3214 38.3894 85.5467C38.9578 86.2666 44.0443 87.5141 45.2153 88.0268C46.1475 88.4343 47.8102 88.6856 48.8283 89.0771C50.1926 87.409 51.5252 85.798 53.2357 84.4553C60.263 78.9383 70.4745 75.9212 79.2104 75.0478C82.8288 74.6681 86.4678 74.5195 90.1052 74.6027C101.763 74.8833 116.44 77.8526 125.019 86.5019C125.628 87.1166 126.629 88.4563 127.206 88.8338C130.22 88.0989 134.56 86.619 137.436 85.4666C137.641 84.9119 137.2 85.0741 137.603 84.8428C137.759 85.012 137.755 85.0551 137.841 85.2733C138.473 85.3444 146.06 81.8179 146.968 81.3082C149.667 74.1295 146.997 66.7531 141.896 61.4349C133.985 53.1877 122.45 48.6002 111.477 46.1831C103.09 44.2524 94.4946 43.3808 85.8907 43.5885C83.4462 43.672 80.688 43.6803 78.2639 43.9482C74.7533 44.3361 71.1666 44.8964 67.6737 45.4455C66.9687 45.5563 66.2317 45.7959 65.5331 45.9443C64.0171 46.3791 62.3699 46.5871 60.8676 47.0194C51.1729 49.8096 41.3013 53.9042 34.2622 61.3814C30.4716 65.4216 27.9159 70.2321 28.1173 75.8822C28.1931 78.0074 28.4935 79.815 29.3462 81.7745ZM125.87 89.2052C125.135 88.3562 124.368 87.443 123.529 86.6981C113.316 77.6347 97.6003 75.4081 84.5481 75.7309C83.8904 75.782 83.2248 75.834 82.5682 75.8876C71.897 76.7576 56.8023 80.2652 50.0996 89.4445C51.8094 89.9832 55.0911 90.5779 56.9056 90.9524C64.6666 92.5684 72.5478 93.5416 80.4689 93.862C84.2298 94.0032 88.0265 93.9431 91.7833 93.9101C99.5767 93.7809 107.347 93.027 115.02 91.6573C117.786 91.1376 120.697 90.4298 123.468 89.8761C124.232 89.7239 125.1 89.3835 125.87 89.2052ZM49.3271 90.4137C48.8197 91.6222 48.1327 93.0771 47.9302 94.3547C48.0524 94.5569 48.1138 94.5579 48.3274 94.662L48.3853 94.8573L48.2943 95.0215C48.1139 94.9955 47.9338 94.9664 47.7543 94.9344C47.4012 95.443 47.6558 97.9872 47.7516 98.656C50.1422 99.9777 51.707 100.46 54.207 101.483L54.4857 101.594C54.7567 101.449 54.9697 100.988 55.255 100.695C55.245 101.173 55.1445 101.347 54.9727 101.789C59.9974 103.278 64.4667 104.719 69.705 105.495C71.4113 104.038 72.829 103.358 74.8737 102.451C76.4155 101.766 78.2368 101.85 79.4072 100.647C81.1921 100.993 83.2293 100.41 85.0439 100.293C86.8851 100.173 95.2635 100.281 96.6241 101.044C97.5803 101.582 98.7167 101.761 99.758 102.089C102.007 102.797 104.313 104.033 106.135 105.531C112.276 104.57 118.291 102.924 124.066 100.625C125.245 100.162 127.362 99.2998 128.402 98.628C128.467 97.8881 128.632 96.6055 128.522 95.9116C128.369 94.9504 127.368 90.0333 126.076 90.4127C122.42 91.2768 118.849 92.259 115.115 92.7787C114.61 92.8488 114.033 93.4305 113.769 93.3254C113.348 93.1381 112.94 93.2313 112.504 93.2973C97.317 95.6122 82.0134 95.9266 66.7723 93.852C65.5001 93.6788 63.1843 93.2683 61.9519 93.2823C61.6684 93.5466 61.4798 93.829 61.0935 93.8931L60.959 93.82C61.1902 93.3124 61.3892 93.5997 61.4294 93.2012C60.5928 92.7577 56.5766 92.196 55.4378 91.9306C53.4512 91.4671 51.2861 91.0255 49.3271 90.4137ZM105.791 106.869C95.8652 108.479 85.7648 108.706 75.7773 107.541C74.2984 107.377 71.4156 107.124 70.0143 106.802C68.838 107.625 67.4925 109.528 67.2827 110.971C67.0629 112.485 67.171 113.412 67.752 114.796C78.8414 118.268 94.2112 118.49 105.45 115.549L107.755 115.038C108.217 114.11 108.64 113.265 108.614 112.199C108.565 110.159 107.372 108.095 105.791 106.869ZM68.554 106.471C64.7715 106.003 58.3915 104.258 54.8802 102.998C54.7706 103.223 54.76 103.303 54.6989 103.542L54.5369 103.618L54.3504 103.531C54.353 103.277 54.3652 103.2 54.4028 102.956C54.1695 102.574 52.6435 102.192 52.1419 102.004C50.838 101.515 49.5947 100.879 48.2928 100.4C49.4549 103.821 52.3263 106.766 55.2353 108.849L55.371 108.862L55.476 108.481C55.9277 108.629 56.1596 109.585 57.0184 110.086C60.0235 111.841 63.05 113.209 66.3489 114.325C66.0114 113.564 65.785 112.675 65.8946 111.838C66.0691 109.678 67.091 107.984 68.554 106.471ZM127.672 100.445C125.059 101.407 122.549 102.601 119.846 103.488C115.633 104.871 111.572 105.651 107.266 106.593C109.123 108.616 109.8 109.878 109.72 112.725C109.64 113.441 109.601 113.701 109.398 114.387C114.053 112.972 118.63 110.71 122.414 107.616C122.752 107.34 123.648 106.637 123.777 106.309C124.045 105.629 124.707 105.395 125.19 104.847C126.476 103.383 127.099 102.333 127.791 100.548L127.728 100.442L127.672 100.445ZM136.705 93.849C137.964 92.8668 141.692 89.7319 142.493 88.5274L142.417 88.4733L141.819 88.6205L141.76 88.5364C142.096 88.1609 142.217 88.1489 142.715 88.192C143.409 87.5252 146.066 84.0458 146.03 83.1968C143.308 84.3462 140.722 85.4916 137.966 86.632C137.805 87.0475 138.164 87.1567 137.988 87.6543L137.782 87.7114C137.566 87.379 137.858 87.1827 137.634 86.8123C136.69 86.9184 135.258 87.6493 134.324 87.9096C132.299 88.4723 129.706 89.6188 127.686 89.9802C129.531 92.4913 129.815 95.1637 129.602 98.1944C131.486 96.9449 134.093 95.8435 135.942 94.3426C136.771 93.6708 136.443 92.7206 137.104 92.6435C137.176 92.9429 136.851 93.5396 136.705 93.849ZM107.222 116.215C104.655 117.224 100.577 117.846 97.7525 118.223C89.1398 119.375 80.1967 118.917 71.7115 117.077C70.8597 116.891 69.5215 116.388 68.7927 116.293C69.6095 117.733 73.6777 120.137 75.4622 120.675C75.905 120.81 76.2998 120.237 76.8131 120.692C76.6095 120.769 76.4068 120.847 76.2052 120.928C76.4488 121.147 77.2432 121.364 77.6102 121.481C81.6264 122.77 86.1965 122.967 90.3872 122.781C92.7094 122.677 95.0853 122.311 97.35 121.738C98.113 121.546 100.499 120.305 100.616 120.324C101.467 120.463 103.315 119.28 104.101 118.79C105.274 118.027 106.126 117.095 107.222 116.215ZM46.5581 98.2896C46.3759 97.1171 46.4225 96.268 46.5409 95.0886C46.5994 94.616 46.6767 94.644 46.4925 94.3096C46.1727 94.1664 46.0823 94.1844 45.7221 94.1674L45.5852 94.0403L45.5993 93.796C46.169 93.7779 45.999 94.0543 46.6147 93.9401C46.9249 93.5607 47.1642 92.257 47.4092 91.7064C47.6704 91.1186 47.8981 90.7141 48.2469 90.1644C46.2275 89.7379 40.8517 87.8666 38.5628 87.0976C38.5004 87.1196 38.4381 87.1417 38.3758 87.1637L38.257 87.6413L38.068 87.6894L37.9393 87.5652L38.0554 87.0726C37.8712 86.8383 30.802 83.8175 30.2144 83.6904C31.336 86.3216 36.4733 91.9457 38.8833 93.3975L38.9649 93.3244L38.8857 92.7256L38.9498 92.6445C39.5977 93.048 39.3506 93.6908 39.4606 93.7909C41.5291 95.6733 44.331 96.7176 46.5581 98.2896ZM87.0367 101.462C82.4304 101.676 78.8088 102.012 74.5425 103.955C73.4382 104.457 72.1793 105.28 71.1979 105.701C72.5397 105.965 73.7264 106.023 75.0249 106.225C79.6826 106.951 84.3883 107.071 89.104 107.039C92.2478 107.011 95.3326 106.901 98.4654 106.585C100.476 106.382 102.609 105.898 104.634 105.849C99.2633 102.668 93.3312 101.047 87.0367 101.462Z" fill="var(--fill-0, black)"/>
<path id="Vector_12" d="M80.3028 21.3047C80.7376 21.3591 81.1121 21.4268 81.5397 21.5072C81.9473 22.7608 82.5301 24.2203 82.8483 25.476L82.7635 25.5599C81.2593 25.6919 82.216 25.2749 81.3847 24.9155C80.0993 24.9301 80.4653 24.8591 79.3992 25.557C79.1458 25.723 78.961 25.7739 78.6821 25.7032C78.547 25.1345 79.9779 21.9438 80.3028 21.3047Z" fill="var(--fill-0, black)"/>
<path id="Vector_13" d="M90.6338 22.7156C91.7698 22.7416 93.1575 23.1125 92.6809 24.7638C92.5427 25.2436 91.962 25.5219 91.5036 25.6835L91.4114 25.6914C89.3473 25.8806 88.1536 23.7285 90.6338 22.7156ZM91.5239 24.7251C91.8178 24.4986 91.8799 24.0803 91.6647 23.7781C91.4493 23.476 91.0335 23.3983 90.7235 23.6021C90.5125 23.741 90.3942 23.9841 90.4151 24.2359C90.4362 24.4877 90.5931 24.7079 90.8242 24.8098C91.0553 24.9118 91.3237 24.8793 91.5239 24.7251Z" fill="var(--fill-0, black)"/>
<path id="Vector_14" d="M93.2972 22.7994C94.0941 22.8767 94.9832 22.788 95.7141 22.8847C96.6292 23.0059 96.469 25.4074 95.668 25.7392L95.4918 25.6171C95.2635 25.2414 95.2976 24.9905 95.3026 24.5584L95.3056 24.3947C95.3086 24.0766 95.3557 23.7886 95.1754 23.5381C94.9141 23.4416 94.783 23.4983 94.5096 23.554C94.0581 23.9893 94.3244 24.5935 94.2904 25.3765C94.1051 25.6793 94.2263 25.5506 93.8749 25.7334C92.9477 25.5259 93.2861 23.6371 93.2972 22.7994Z" fill="var(--fill-0, black)"/>
<path id="Vector_15" d="M85.5587 23.0816C86.0045 22.5134 85.8331 21.6283 86.7129 21.7337C87.2791 22.328 86.4897 22.5833 87.5406 22.9068C87.6127 23.254 87.623 23.0849 87.4875 23.4301C86.4352 24.1714 87.2635 24.6609 86.8677 25.5594C86.6425 25.6807 86.5576 25.7586 86.3067 25.722C85.5402 25.0253 86.3486 23.907 85.5161 23.3803L85.5587 23.0816Z" fill="var(--fill-0, black)"/>
<path id="Vector_16" d="M85.5162 23.3803C85.2773 23.566 84.9198 23.4775 84.4753 23.5841C84.1708 23.866 83.9766 24.0253 84.0938 24.4479C84.5472 24.8519 85.2946 24.7385 85.4542 25.2501C85.1297 25.8904 84.3639 25.7804 83.8431 25.4419C83.5046 25.2217 83.2694 24.8743 83.1908 24.4782C83.1143 24.0759 83.2115 23.6761 83.4423 23.3407C83.6676 23.0111 84.0222 22.7927 84.4179 22.7401C84.8977 22.6752 85.1979 22.7886 85.5588 23.0817L85.5162 23.3803Z" fill="var(--fill-0, black)"/>
<path id="Vector_17" d="M87.8804 22.7722C88.3145 22.778 88.4043 22.7706 88.8173 22.8749C88.943 23.4138 88.8704 25.0677 88.8416 25.6554C88.4386 25.6515 88.329 25.6515 87.9383 25.5744C87.7388 25.0822 87.855 23.3981 87.8804 22.7722Z" fill="var(--fill-0, black)"/>
<path id="Vector_18" d="M88.2385 21.0565C88.6798 21.1917 88.8186 21.1928 88.9144 21.6562C88.7279 22.0325 88.7832 21.9172 88.3921 22.1833C88.0485 22.0309 87.9146 21.9932 87.7485 21.7081C87.8655 21.3173 87.8984 21.3851 88.2385 21.0565Z" fill="var(--fill-0, black)"/>
<path id="Vector_19" d="M142.986 37.443C143.369 37.5273 143.878 37.745 143.851 38.1898C143.497 38.0495 143.163 37.9025 142.915 37.6189L142.986 37.443Z" fill="var(--fill-0, black)"/>
<path id="Vector_20" d="M98.1015 60.96C98.4349 60.9233 99.7975 61.0521 100.246 61.065C100.375 61.2565 100.393 61.4792 100.404 61.7087C100.476 63.2068 100.647 65.5811 98.4259 65.3251C97.7851 65.2513 97.5889 65.1853 97.1193 64.7324C97.0652 64.5533 97.0652 64.5194 97.0382 64.334L97.1954 64.1938C97.682 64.1491 98.3298 64.4756 98.9395 64.5801L99.0817 64.4767C99.2148 64.2005 99.2889 64.111 99.2579 63.8052C98.8904 63.6688 98.2236 64.0487 97.8342 63.8745C96.3534 63.2118 96.867 61.5742 98.1015 60.96ZM98.8364 63.1176C99.1998 63.0304 99.4231 62.6629 99.333 62.2996C99.2419 61.9362 98.8724 61.7166 98.51 61.8107C98.1525 61.9034 97.9363 62.267 98.0254 62.6256C98.1155 62.9841 98.4769 63.2036 98.8364 63.1176Z" fill="var(--fill-0, black)"/>
<path id="Vector_21" d="M82.8698 60.9729C83.2443 60.9432 84.7017 61.0774 85.2496 61.0933C85.3391 61.6995 85.3091 63.1843 85.2499 63.8074C84.9674 63.9122 84.6196 63.8516 84.2953 63.8345C83.9008 63.6707 82.522 64.2111 82.1095 63.3997C81.6164 62.4298 82.0257 61.5088 82.8698 60.9729ZM83.6224 63.1246C83.8679 63.1075 84.0838 62.956 84.1834 62.731C84.2829 62.506 84.2498 62.2442 84.0973 62.0511C83.9448 61.858 83.698 61.7651 83.456 61.8097C83.1098 61.8735 82.8736 62.1966 82.9178 62.5458C82.962 62.8952 83.2713 63.1492 83.6224 63.1246Z" fill="var(--fill-0, black)"/>
<path id="Vector_22" d="M75.7144 59.5537C76.0846 59.6199 76.5002 59.5983 76.8808 59.596L76.8541 63.041C77.2673 63.0162 77.7293 62.9413 78.098 63.0865C78.3268 63.4128 78.2488 63.347 78.2392 63.8412C77.3544 63.8468 76.5444 63.8488 75.6599 63.9124C75.6612 62.6198 75.6112 60.8035 75.7144 59.5537Z" fill="var(--fill-0, black)"/>
<path id="Vector_23" d="M93.4789 61.0101C93.7262 61.0178 94.1177 61.1508 94.2829 61.1419C95.7537 61.062 96.7569 60.8827 96.5937 62.8064C96.5496 63.3198 96.4805 63.658 96.0801 64.0645L95.7737 63.9975C95.4903 63.6153 95.5424 63.1009 95.5494 62.6422C95.5584 62.2827 95.5935 62.1605 95.4363 61.8542C95.1569 61.6973 95.1599 61.716 94.8536 61.7484C94.0576 62.3787 94.6683 63.643 93.9715 63.9918C93.2596 63.7117 93.4959 61.8062 93.4789 61.0101Z" fill="var(--fill-0, black)"/>
<path id="Vector_24" d="M88.2737 61.0399C88.7656 61.0301 90.3376 61.1044 90.8025 61.1725C91.6238 61.2927 91.6798 63.763 90.7454 63.9651C90.2926 63.5918 90.3935 63.1841 90.4019 62.6423C90.4159 62.3924 90.3898 62.2766 90.3526 62.0345C90.1694 61.7924 90.1225 61.6834 89.8388 61.5734C89.064 61.7627 89.4669 63.3178 88.997 63.9338C88.0801 63.9929 88.3112 61.8213 88.2737 61.0399Z" fill="var(--fill-0, black)"/>
<path id="Vector_25" d="M79.2728 63.8215C78.4867 63.5118 78.1918 62.6783 78.5059 61.9178C78.6799 61.4926 79.0263 61.1615 79.4588 61.0066C80.067 60.7824 80.4655 60.9993 80.9897 61.259C81.2509 61.6225 81.4984 61.8819 81.4666 62.3085C80.8411 62.9926 79.7618 62.1764 79.3395 62.7479C79.4837 63.2926 79.6878 63.2474 80.1811 63.3743C79.9248 63.6835 79.701 63.5343 79.2728 63.8215Z" fill="var(--fill-0, black)"/>
<path id="Vector_26" d="M87.9776 60.8603C87.988 60.9875 87.9429 61.349 87.9287 61.4953C87.6177 61.926 87.5435 61.7227 87.0314 62.0977C86.7878 62.4996 86.9068 63.1786 86.8377 63.7721C86.591 63.9312 86.0584 63.8752 85.7345 63.8714C85.7834 63.0202 85.7174 62.2248 85.7979 61.3443C86.1259 60.9238 86.8222 61.4164 87.8574 60.9192L87.9776 60.8603Z" fill="var(--fill-0, black)"/>
<path id="Vector_27" d="M92.0174 60.938C92.3067 60.9451 92.4219 60.9236 92.6772 61.0643C93.0546 61.5647 92.8704 63.1647 92.8654 63.8749C92.565 63.88 92.2497 63.9291 92.0174 63.7625C91.9183 63.1798 91.9363 61.5332 92.0174 60.938Z" fill="var(--fill-0, black)"/>
<path id="Vector_28" d="M80.1812 63.3742C80.5019 63.1267 80.8095 62.9625 81.224 63.0651L81.3021 63.2544C81.1383 63.5941 80.8783 63.7149 80.5574 63.932C80.1174 63.9077 79.7081 63.896 79.2729 63.8214C79.701 63.5342 79.9249 63.6833 80.1812 63.3742Z" fill="var(--fill-0, black)"/>
<path id="Vector_29" d="M92.2485 59.353C92.4367 59.3004 92.638 59.3573 92.7712 59.5008C92.9033 59.6442 92.9444 59.8498 92.8773 60.0331C92.8092 60.2163 92.645 60.3464 92.4508 60.3698C92.1814 60.4023 91.9321 60.2217 91.8791 59.9553C91.826 59.6889 91.9872 59.4264 92.2485 59.353Z" fill="var(--fill-0, black)"/>
<path id="Vector_30" d="M49.5752 70.745C49.6582 70.9408 49.6392 70.9593 49.6353 71.1765C49.4577 71.4774 49.2178 71.5373 48.89 71.6878L48.8559 71.4808C49.0943 71.2342 49.334 70.9889 49.5752 70.745Z" fill="var(--fill-0, black)"/>
<path id="Vector_31" d="M43.3448 75.9536C43.3855 75.991 43.4377 76.0923 43.4698 76.1459C43.3491 76.5145 43.0884 76.6868 42.7926 76.9554L42.6963 76.856C42.6827 76.5738 43.1038 76.2226 43.3448 75.9536Z" fill="var(--fill-0, black)"/>
<path id="Vector_32" d="M131.039 74.5719C131.51 74.7393 131.857 74.9577 131.974 75.4647C131.524 75.2731 131.152 75.074 131.039 74.5719Z" fill="var(--fill-0, black)"/>
<path id="Vector_33" d="M91.9718 85.699C93.3915 85.5378 93.6669 86.3028 93.9642 87.4462C93.4336 87.4202 92.2872 87.31 91.8337 87.4472C91.7325 87.7346 91.7375 87.5874 91.8567 87.9018C92.3893 88.3383 92.8068 87.7626 93.6599 87.7626C93.811 88.0189 93.782 87.8828 93.737 88.1871C93.4957 88.4865 93.1553 88.6377 92.7928 88.7458C90.6659 89.3806 89.6096 86.2858 91.9718 85.699Z" fill="var(--fill-0, black)"/>
<path id="Vector_34" d="M80.9044 85.7259C82.0994 85.838 82.2075 86.1634 82.1818 87.412C82.1729 87.8495 82.1808 88.3431 82.1888 88.7847C81.8301 88.7647 81.4599 88.7607 81.0997 88.7516C81.1357 87.8655 81.4062 86.8793 80.4789 86.5209C79.9048 87.3679 80.385 88.247 80.0389 88.7436C79.7531 88.7777 79.5553 88.8417 79.3208 88.6956C78.8893 88.0708 79.0167 86.7702 79.1224 86.0363C79.1882 85.5787 80.3439 86.0102 80.9044 85.7259Z" fill="var(--fill-0, black)"/>
<path id="Vector_35" d="M85.7504 85.7049C86.493 85.6338 86.7076 85.7209 87.3661 85.9953C87.5523 86.4158 87.7402 86.9715 87.9013 87.411C87.2946 87.408 86.2565 87.2989 85.716 87.4441L85.6474 87.6113C86.0759 88.5444 86.7181 87.8386 87.5641 87.7154L87.7185 87.9056C87.6316 88.3402 87.2107 88.6305 86.8031 88.7146C85.3509 89.011 84.9201 88.3842 84.6056 87.2038C84.8831 86.4248 84.9764 86.0513 85.7504 85.7049Z" fill="var(--fill-0, black)"/>
<path id="Vector_36" d="M77.4219 84.3062C77.7941 84.3062 77.9474 84.3092 78.3128 84.3713C78.3641 84.4163 78.4153 84.4614 78.4665 84.5054C78.5849 85.6138 78.4675 87.5442 78.5519 88.5935L78.5636 88.7307C78.2816 88.7778 77.6539 88.7717 77.3431 88.7767C77.3377 87.8856 77.2745 85.0771 77.4219 84.3062Z" fill="var(--fill-0, black)"/>
<path id="Vector_37" d="M95.2014 85.7131C95.2885 85.7061 95.3766 85.7001 95.4647 85.6961C95.8993 85.6741 96.1265 85.6721 96.4299 85.9424L96.4249 86.1697C96.1465 86.5151 95.8031 86.438 95.4057 86.6693C95.711 87.1169 96.2967 86.8135 96.7212 87.5875C96.7563 88.3664 96.0454 88.7008 95.3626 88.7569C94.9101 88.7399 94.7298 88.7489 94.2853 88.6267C94.1191 88.4405 94.1381 88.3784 94.1041 88.1281C94.5586 87.6255 95.0953 88.1872 95.5979 88.014C95.4767 87.6605 94.7228 87.3922 94.3123 86.8215C94.1762 86.1587 94.6187 85.9114 95.2014 85.7131Z" fill="var(--fill-0, black)"/>
<path id="Vector_38" d="M97.3154 84.91C98.8283 84.9321 98.8483 86.0104 98.4378 87.1638C98.2445 87.7065 98.2966 88.132 98.3136 88.6987C98.0153 88.7618 97.4976 88.7438 97.1732 88.7468C97.2884 86.7293 96.6626 86.7053 97.3154 84.91Z" fill="var(--fill-0, black)"/>
<path id="Vector_39" d="M82.976 84.9121C83.434 84.9151 83.5271 84.888 83.805 85.1774C84.6794 86.0865 83.8644 87.0477 83.8877 88.053C83.8926 88.2642 83.8724 88.5156 83.8652 88.7288L82.7754 88.7549C82.8071 87.6084 82.8983 87.262 82.4068 86.2477C82.5995 85.7381 82.7318 85.3987 82.976 84.9121Z" fill="var(--fill-0, black)"/>
<path id="Vector_40" d="M90.2247 85.7039L90.3998 85.783C90.5381 86.1445 90.4961 86.3818 90.2564 86.6591C89.9365 86.6961 89.863 86.7112 89.5525 86.7983C88.8463 87.5072 89.4292 87.8195 89.1437 88.6666C88.9012 88.8148 88.6133 88.7487 88.3163 88.7237C88.311 88.158 88.1929 86.545 88.3532 86.1445C88.6633 85.8381 89.5734 85.9322 90.2247 85.7039Z" fill="var(--fill-0, black)"/>
<path id="Vector_41" d="M65.1892 91.0975C65.2321 91.1015 65.3594 91.1686 65.406 91.1917L65.3837 91.3629C65.1739 91.6392 64.9491 91.7353 64.649 91.9095C64.5025 91.8705 64.5717 91.9116 64.4626 91.7584C64.5775 91.503 64.9498 91.2767 65.1892 91.0975Z" fill="var(--fill-0, black)"/>
<path id="Vector_42" d="M57.1042 97.1702C57.4143 97.2763 57.8754 97.3855 58.0709 97.6198C57.7587 97.77 57.6271 97.7029 57.2484 97.6818C56.9766 97.7159 57.152 97.8921 56.6311 97.8771C56.6515 97.6368 56.9314 97.3725 57.1042 97.1702Z" fill="var(--fill-0, black)"/>
<path id="Vector_43" d="M54.657 106.653C54.9582 106.72 55.6551 107.463 55.8693 107.743C55.0389 107.854 54.8937 107.306 54.657 106.653Z" fill="var(--fill-0, black)"/>
<path id="Vector_44" d="M38.1453 88.6516L38.3193 88.7617C38.4699 89.1522 38.4144 89.5387 38.3991 89.9662L38.1782 89.8501C38.0249 89.4506 38.105 89.0881 38.1453 88.6516Z" fill="var(--fill-0, black)"/>
</g>
</svg>
