<svg width="473.831" height="359" overflow="visible" style="display: block;" viewBox="0 0 473.831 359" fill="none" xmlns="http://www.w3.org/2000/svg">
<g id="Group 624953">
<path id="Vector" d="M193.351 347.599C194.466 347.58 195.388 347.591 196.314 348.176C197.442 349.597 200.73 357.172 199.29 358.661C197.7 358.782 197.373 357.941 196.514 356.832C196.044 356.824 194.021 356.776 193.654 356.911C192.529 357.324 190.765 359.117 189.503 358.937L189.265 358.429C189.459 355.893 192.108 349.913 193.351 347.599Z" fill="var(--fill-0, white)"/>
<path id="Vector_2" d="M207.119 350.854C208.584 351.56 209.516 353.779 210.377 355.313C211.054 353.605 212.159 349.628 214.925 351.55C214.803 352.949 211.427 358.239 209.928 358.821C208.592 358.244 208.143 356.502 207.565 355.095L207.464 354.971L207.164 354.994C206.6 356.663 206.333 358.872 204.288 358.803C202.291 357.625 202.085 354.272 200.348 352.467C200.058 352.164 199.979 351.84 199.936 351.428L200.363 351.202C203.713 351.423 203.494 352.174 204.517 355.216C205.306 353.782 206.146 352.143 207.119 350.854Z" fill="var(--fill-0, white)"/>
<path id="Vector_3" d="M223.547 351.131C223.63 351.144 223.955 351.418 224.039 351.484C224.237 353.584 224.132 356.615 224.119 358.79C222.113 358.677 218.049 358.893 216.68 358.439C215.887 357.614 215.389 356.916 215.237 355.759C214.482 349.997 219.912 351.6 223.547 351.131ZM220.356 356.584C220.934 356.265 221.291 355.656 221.286 354.995C221.281 354.336 220.915 353.729 220.332 353.421C219.749 353.11 219.043 353.144 218.493 353.508C217.688 354.043 217.448 355.116 217.948 355.941C218.448 356.766 219.511 357.05 220.356 356.584Z" fill="var(--fill-0, white)"/>
<path id="Vector_4" d="M234.976 351.128C235.96 351.138 236.811 351.125 237.758 351.455C239.097 351.924 240.226 353.658 239.747 355.037C238.293 355.79 236.121 354.757 234.541 355.445C234.221 356.386 234.175 355.964 234.499 356.752C236.254 357.488 237.415 356.51 239.156 356.283L239.406 356.252C239.613 356.565 239.551 356.563 239.619 356.977C238.641 358.845 236.019 359.491 234.16 358.613C233.081 358.089 232.277 357.129 231.951 355.975C231.222 353.487 232.713 351.842 234.976 351.128Z" fill="var(--fill-0, white)"/>
<path id="Vector_5" d="M253.936 351.117C256.026 351.231 258.688 352.069 259.115 354.465C257.742 356.146 254.076 354.328 252.987 355.933C253.962 358.3 255.881 356.449 258.127 356.381L258.522 356.428L258.604 356.853C257.033 358.916 251.553 360.427 250.953 356.818C250.431 353.666 250.544 351.874 253.936 351.117Z" fill="var(--fill-0, white)"/>
<path id="Vector_6" d="M241.631 350.999C243.903 351.616 246.257 351.036 248.065 351.671C249.807 352.28 249.854 358.355 247.553 358.959C246.352 357.917 246.62 356.681 246.649 355.195C246.647 354.262 246.678 354.27 246.373 353.408C242.498 351.534 244.652 357.127 243.184 358.806C242.293 358.977 242.628 358.961 241.692 358.605C241.294 357.888 241.423 352.016 241.631 350.999Z" fill="var(--fill-0, white)"/>
<path id="Vector_7" d="M270.035 351.059C270.873 351.128 272.465 351.202 273.018 351.76C272.726 352.253 270.57 353.11 269.858 353.484C270.393 354.053 273.68 354.019 273.637 355.88C273.59 358.002 271.642 358.534 269.895 358.774C268.714 358.687 267.462 358.861 266.906 357.733C267.668 356.012 269.339 357.527 270.464 356.858C269.832 355.392 267.676 355.176 267.359 353.094C267.91 351.855 268.777 351.576 270.035 351.059Z" fill="var(--fill-0, white)"/>
<path id="Vector_8" d="M262.579 351.102C263.683 351.144 264.263 351.173 265.346 351.373L265.662 351.845C265.175 353.571 263.931 352.182 262.455 353.01L262.563 353.492C266.935 354.473 267.475 357.928 263.403 358.748C262.262 358.719 261.129 358.819 260.149 358.313C259.848 357.448 259.83 357.846 260.027 357.082L260.475 356.868C261.511 357.048 262.16 357.016 263.201 357.016L263.374 356.787C262.212 355.854 261.029 355.208 260.212 354.011C259.964 352.23 261.002 351.708 262.579 351.102Z" fill="var(--fill-0, white)"/>
<path id="Vector_9" d="M225.286 351.144C226.841 351.159 227.907 351.795 229.294 351.515C230.242 351.323 230.481 351.133 231.195 351.855L231.147 352.301C229.813 353.948 229.264 352.675 228.193 354.934C228.198 356.315 228.52 357.896 227.431 358.792C226.566 358.795 226.585 358.748 225.863 358.334C224.726 356.758 225.473 353.785 225.286 351.144Z" fill="var(--fill-0, white)"/>
<path id="Vector_10" d="M400.736 212.303C401.057 212.576 400.941 212.473 401.11 212.924C400.791 213.771 400.108 214.249 399.42 214.88C398.925 214.521 399.073 214.757 398.97 214.142C399.32 213.29 399.992 212.897 400.736 212.303Z" fill="var(--fill-0, white)"/>
<path id="Vector_11" d="M21.3399 73.007C24.2082 68.6624 32.2415 61.3447 36.4094 57.8526C64.2758 34.5063 100.06 20.1896 135.044 11.5422C138.772 10.6743 142.449 9.58523 146.195 8.79716C150.745 7.83962 155.433 7.27716 159.979 6.35415C176.18 3.05929 192.926 2.0232 209.382 0.593612C211.182 0.437053 213.102 0.35983 214.912 0.286031C241.076 -0.778256 267.03 1.21906 292.938 4.75719C296.715 5.273 300.481 6.225 304.237 6.87364C340.824 13.1924 378.821 25.9857 409.826 46.485C439.326 65.9898 465.258 96.1949 460.817 133.59C460.437 136.769 459.823 139.961 459.125 143.091C469.472 124.492 472.313 108.432 469.889 87.4987C469.066 80.3996 468.771 73.1738 466.763 66.222C466.18 64.0294 465.416 61.6897 464.794 59.4636C463.59 59.9137 463.041 60.224 461.753 60.1636L461.165 59.8223C460.878 57.3255 460.403 48.9865 461.378 46.8906L461.929 46.4678C464.048 46.7738 469.509 54.941 470.835 56.9678C469.854 57.379 468.869 57.7754 467.875 58.1573C473.468 77.0259 475.56 99.4797 472.25 118.942C471.82 121.472 470.732 124.146 469.962 126.57C466.531 137.38 460.851 147.063 454.544 156.413C451.835 160.428 449.895 165.649 446.861 169.6C437.431 182.682 425.35 193.627 412.167 202.813C406.727 206.604 395.341 213.911 389.443 216.2C383.932 231.031 370.453 243.903 357.468 252.417C356.092 253.318 355.971 254.314 354.995 255.2C354.165 255.954 354.176 254.741 352.239 255.896C348.293 258.247 345.009 260.044 340.739 261.797C335.756 278.47 324.006 287.592 309.223 295.792C308.251 296.332 308.15 297.845 306.482 298.309L306.266 298.066L306.324 297.228C305.647 297.421 302.626 299.086 301.525 299.55C296.261 301.775 292.163 303.417 286.602 304.848C285.4 306.374 281.821 311.232 280.611 312.154C270.546 319.834 257.637 324.125 245.257 325.841C223.743 328.822 188.407 324.869 176.083 304.571C162.815 301.303 146.515 292.75 136.397 283.412C132.949 280.231 129.847 275.502 126.894 272.79C126.735 270.363 124.94 268.125 124.133 265.785C123.662 264.419 123.339 263.244 122.948 261.868C121.222 261.172 119.725 260.479 117.868 260.218C116.69 260.292 116.341 260.487 115.583 259.567L116.412 259.335L116.334 259.019C114.794 257.98 111.507 255.579 109.648 255.094C109.376 255.026 109.24 255.608 108.132 255.353C107.413 254.712 107.321 254.008 107.03 253.062C97.1394 246.937 88.3759 238.816 81.5452 229.541C80.6133 228.274 78.9462 226.732 77.8295 225.493L78.1911 224.805C78.1052 224.257 75.0524 218.632 74.5243 217.46C52.9614 208.042 25.1734 186.763 12.9139 166.786L2.77334 166.75C5.17797 166.555 6.8737 166.588 9.24125 165.992L12.3921 165.864C-4.98339 139.358 -3.84711 107.827 14.2942 81.943C15.2203 80.6215 19.6165 74.9411 19.8429 74.1564C19.3356 73.6259 18.7204 73.8032 17.7769 73.7756C17.8064 73.3349 17.8881 73.2832 18.0684 72.8496L21.3399 73.007ZM82.344 166.05C97.5374 143.093 136.064 126.577 161.86 120.096C205.381 109.163 256.496 108.713 299.991 119.639C312.684 122.877 325.076 127.199 337.031 132.555C356.935 141.342 380.355 158.285 388.973 179.195C392.824 188.539 394.896 202.593 390.665 212.1C402.114 206.456 413.324 198.178 423.212 190.218C457.391 162.712 471.254 119.117 442.905 81.5247C412.333 40.9856 358.166 21.0278 309.919 11.1569C305.573 10.2676 301.026 9.14691 296.646 8.51462C290.368 7.65169 284.08 6.8631 277.781 6.14857C273.469 5.62644 269.133 4.9467 264.803 4.61777C191.866 -0.919529 103.772 11.066 43.8789 55.9629C25.0901 70.0471 7.38527 91.4359 4.04282 115.34C2.0097 129.879 4.40917 143.974 11.0519 157.071C12.6293 160.18 14.1777 163.092 16.2828 165.883L18.6268 166.017C19.4386 166.606 19.387 166.597 20.3648 166.78L16.6892 166.804C22.1577 175.187 42.155 196.609 51.4594 199.519C54.4801 203.621 68.2695 210.819 73.3361 213.216C69.577 206.039 70.2243 193.028 72.4511 185.272C74.7723 177.187 77.6403 173.708 81.1338 166.808L66.6009 166.743C69.2473 166.547 74.9338 166.69 77.3061 166.003C79.2277 165.865 80.404 165.934 82.344 166.05ZM77.2508 215.263C80.1647 216.811 97.8864 225.298 100.103 224.934C100.392 224.415 100.633 223.985 100.962 223.487L101.505 223.445L101.777 223.756C101.468 224.307 101.314 224.6 101.056 225.193C102.552 227.088 115.942 230.372 119.025 231.721C121.478 232.794 125.855 233.455 128.535 234.486C132.127 230.095 135.635 225.854 140.137 222.32C158.636 207.797 185.517 199.854 208.513 197.555C218.038 196.556 227.617 196.165 237.192 196.384C267.881 197.122 306.516 204.939 329.098 227.707C330.703 229.325 333.336 232.852 334.857 233.846C342.79 231.911 354.215 228.015 361.785 224.982C362.325 223.522 361.165 223.949 362.225 223.34C362.636 223.785 362.625 223.898 362.852 224.473C364.515 224.66 384.488 215.377 386.878 214.035C393.984 195.138 386.955 175.72 373.526 161.721C352.702 140.011 322.338 127.935 293.452 121.572C271.373 116.49 248.747 114.195 226.098 114.742C219.663 114.962 212.403 114.984 206.021 115.689C196.78 116.71 187.338 118.185 178.144 119.631C176.288 119.922 174.348 120.553 172.509 120.943C168.518 122.088 164.182 122.635 160.228 123.774C134.707 131.118 108.721 141.897 90.1915 161.58C80.2132 172.215 73.4856 184.879 74.0159 199.752C74.2154 205.346 75.006 210.105 77.2508 215.263ZM331.338 234.823C329.404 232.588 327.385 230.185 325.176 228.224C298.293 204.365 256.923 198.504 222.564 199.353C220.833 199.488 219.08 199.625 217.352 199.766C189.261 202.056 149.526 211.29 131.882 235.453C136.383 236.871 145.021 238.437 149.798 239.423C170.228 243.677 190.974 246.238 211.826 247.082C221.726 247.454 231.72 247.295 241.61 247.208C262.125 246.868 282.58 244.884 302.779 241.278C310.059 239.91 317.723 238.047 325.016 236.589C327.027 236.189 329.312 235.293 331.338 234.823ZM129.848 238.005C128.513 241.186 126.704 245.016 126.171 248.379C126.493 248.911 126.654 248.914 127.217 249.188L127.369 249.702L127.13 250.134C126.655 250.065 126.181 249.989 125.708 249.905C124.779 251.244 125.449 257.941 125.701 259.701C131.994 263.181 136.113 264.451 142.694 267.142L143.428 267.435C144.141 267.055 144.702 265.84 145.453 265.068C145.427 266.328 145.162 266.786 144.71 267.949C157.937 271.868 169.702 275.661 183.491 277.703C187.983 273.868 191.715 272.079 197.097 269.691C201.156 267.888 205.95 268.109 209.031 264.944C213.73 265.853 219.092 264.319 223.869 264.011C228.716 263.695 250.771 263.979 254.353 265.988C256.87 267.403 259.861 267.875 262.602 268.739C268.522 270.603 274.594 273.855 279.388 277.798C295.555 275.27 311.39 270.937 326.592 264.886C329.694 263.666 335.268 261.396 338.004 259.628C338.175 257.68 338.61 254.304 338.32 252.477C337.917 249.947 335.284 237.003 331.881 238.002C322.259 240.277 312.858 242.862 303.027 244.23C301.699 244.415 300.18 245.946 299.485 245.669C298.378 245.176 297.302 245.421 296.156 245.595C256.177 251.689 215.892 252.517 175.771 247.056C172.422 246.6 166.326 245.519 163.082 245.556C162.335 246.252 161.839 246.995 160.822 247.164L160.468 246.971C161.077 245.635 161.601 246.391 161.706 245.342C159.504 244.175 148.932 242.696 145.934 241.998C140.705 240.777 135.005 239.615 129.848 238.005ZM278.484 281.322C252.355 285.56 225.767 286.156 199.476 283.091C195.583 282.658 187.994 281.991 184.305 281.145C181.209 283.312 177.667 288.32 177.115 292.12C176.536 296.105 176.821 298.546 178.35 302.189C207.542 311.329 248.001 311.912 277.586 304.171L283.653 302.826C284.87 300.383 285.983 298.159 285.914 295.352C285.785 289.983 282.646 284.548 278.484 281.322ZM180.461 280.273C170.504 279.042 153.709 274.448 144.466 271.132C144.178 271.723 144.15 271.934 143.989 272.564L143.563 272.764L143.072 272.535C143.079 271.865 143.111 271.662 143.21 271.022C142.595 270.015 138.579 269.011 137.258 268.515C133.826 267.226 130.553 265.553 127.126 264.293C130.185 273.299 137.743 281.05 145.401 286.533L145.758 286.567L146.035 285.565C147.224 285.955 147.834 288.47 150.095 289.79C158.005 294.411 165.972 298.011 174.656 300.947C173.768 298.944 173.172 296.606 173.461 294.403C173.92 288.715 176.61 284.255 180.461 280.273ZM336.082 264.411C329.204 266.944 322.596 270.086 315.483 272.421C304.392 276.061 293.702 278.114 282.366 280.595C287.256 285.921 289.037 289.242 288.826 296.735C288.615 298.623 288.513 299.305 287.978 301.111C300.233 297.386 312.28 291.432 322.243 283.288C323.131 282.561 325.49 280.71 325.83 279.846C326.536 278.056 328.278 277.442 329.549 275.998C332.936 272.145 334.575 269.38 336.396 264.683L336.23 264.404L336.082 264.411ZM359.861 247.048C363.176 244.462 372.989 236.21 375.097 233.039L374.897 232.897L373.323 233.284L373.168 233.063C374.053 232.074 374.372 232.043 375.682 232.156C377.509 230.401 384.503 221.242 384.409 219.007C377.242 222.032 370.435 225.048 363.182 228.05C362.757 229.143 363.701 229.431 363.24 230.741L362.697 230.891C362.127 230.016 362.897 229.499 362.306 228.524C359.821 228.803 356.052 230.728 353.593 231.413C348.264 232.894 341.438 235.912 336.119 236.863C340.977 243.474 341.725 250.508 341.164 258.486C346.124 255.197 352.984 252.298 357.852 248.347C360.035 246.578 359.173 244.077 360.912 243.874C361.102 244.662 360.245 246.233 359.861 247.048ZM282.251 305.923C275.493 308.58 264.758 310.217 257.323 311.211C234.651 314.242 211.109 313.037 188.773 308.193C186.531 307.702 183.008 306.379 181.09 306.129C183.24 309.919 193.949 316.247 198.646 317.665C199.812 318.018 200.851 316.511 202.202 317.71C201.666 317.91 201.133 318.116 200.602 318.33C201.243 318.907 203.334 319.479 204.301 319.787C214.873 323.179 226.903 323.698 237.935 323.208C244.048 322.934 250.302 321.972 256.264 320.462C258.272 319.956 264.553 316.69 264.861 316.74C267.101 317.107 271.966 313.991 274.035 312.702C277.122 310.694 279.365 308.24 282.251 305.923ZM122.559 258.737C122.08 255.65 122.202 253.415 122.514 250.311C122.668 249.067 122.871 249.14 122.387 248.26C121.545 247.883 121.307 247.931 120.358 247.886L119.998 247.551L120.035 246.908C121.535 246.86 121.087 247.588 122.708 247.287C123.525 246.289 124.155 242.857 124.8 241.407C125.487 239.86 126.087 238.795 127.005 237.348C121.689 236.226 107.538 231.299 101.512 229.275C101.348 229.333 101.184 229.391 101.02 229.449L100.708 230.706L100.21 230.833L99.8712 230.506L100.177 229.209C99.692 228.593 81.0829 220.641 79.5361 220.306C82.4887 227.233 96.0122 242.037 102.356 245.859L102.571 245.667L102.362 244.09L102.531 243.877C104.237 244.939 103.586 246.631 103.876 246.895C109.321 251.85 116.697 254.599 122.559 258.737ZM229.115 267.087C216.989 267.651 207.456 268.536 196.225 273.65C193.318 274.973 190.004 277.139 187.421 278.246C190.953 278.942 194.077 279.095 197.495 279.627C209.756 281.538 222.143 281.854 234.557 281.77C242.833 281.696 250.953 281.406 259.2 280.573C264.492 280.038 270.108 278.765 275.438 278.636C261.3 270.263 245.684 265.995 229.115 267.087Z" fill="var(--fill-0, white)"/>
<path id="Vector_12" d="M211.388 56.0825C212.533 56.2256 213.519 56.4038 214.644 56.6155C215.717 59.9153 217.252 63.7573 218.089 67.063L217.866 67.2839C213.907 67.6313 216.425 66.5335 214.237 65.5876C210.853 65.6258 211.816 65.4389 209.01 67.2762C208.343 67.7132 207.856 67.8471 207.122 67.6611C206.766 66.164 210.533 57.7649 211.388 56.0825Z" fill="var(--fill-0, white)"/>
<path id="Vector_13" d="M238.585 59.796C241.575 59.8645 245.228 60.8408 243.973 65.1876C243.61 66.4506 242.081 67.1833 240.874 67.6087L240.632 67.6295C235.198 68.1277 232.056 62.4623 238.585 59.796ZM240.928 65.0858C241.702 64.4896 241.865 63.3884 241.298 62.593C240.731 61.7976 239.637 61.593 238.821 62.1296C238.265 62.4952 237.954 63.1352 238.009 63.798C238.064 64.4609 238.477 65.0405 239.086 65.3088C239.694 65.5774 240.401 65.4917 240.928 65.0858Z" fill="var(--fill-0, white)"/>
<path id="Vector_14" d="M245.592 60.0166C247.69 60.2201 250.031 59.9866 251.955 60.2412C254.363 60.5601 253.942 66.8818 251.833 67.7553L251.369 67.434C250.769 66.4448 250.858 65.7846 250.871 64.647L250.879 64.2161C250.887 63.3787 251.011 62.6207 250.537 61.9613C249.849 61.7072 249.503 61.8564 248.784 62.0029C247.595 63.1489 248.296 64.7395 248.207 66.8006C247.719 67.5976 248.038 67.259 247.113 67.74C244.672 67.1939 245.563 62.2217 245.592 60.0166Z" fill="var(--fill-0, white)"/>
<path id="Vector_15" d="M225.224 60.7596C226.398 59.2639 225.947 56.9339 228.263 57.2115C229.753 58.7757 227.675 59.4478 230.442 60.2994C230.631 61.2135 230.658 60.7683 230.302 61.6768C227.532 63.6283 229.712 64.9169 228.67 67.2821C228.077 67.6013 227.854 67.8064 227.193 67.7101C225.176 65.8762 227.304 62.9322 225.112 61.5458L225.224 60.7596Z" fill="var(--fill-0, white)"/>
<path id="Vector_16" d="M225.112 61.5458C224.483 62.0344 223.542 61.8015 222.372 62.0822C221.57 62.8244 221.059 63.2437 221.368 64.356C222.561 65.4195 224.529 65.1211 224.949 66.4677C224.095 68.1532 222.079 67.8638 220.708 66.9727C219.817 66.3931 219.197 65.4785 218.991 64.4358C218.789 63.3768 219.045 62.3244 219.653 61.4414C220.246 60.5738 221.179 59.9989 222.221 59.8605C223.484 59.6895 224.274 59.9881 225.224 60.7596L225.112 61.5458Z" fill="var(--fill-0, white)"/>
<path id="Vector_17" d="M231.335 59.9456C232.478 59.9609 232.714 59.9414 233.801 60.2158C234.132 61.6345 233.941 65.9881 233.865 67.5353C232.804 67.525 232.516 67.525 231.487 67.3221C230.962 66.0264 231.268 61.5932 231.335 59.9456Z" fill="var(--fill-0, white)"/>
<path id="Vector_18" d="M232.276 55.429C233.438 55.7848 233.803 55.7877 234.055 57.0077C233.564 57.9982 233.71 57.6946 232.68 58.3951C231.776 57.994 231.424 57.8946 230.986 57.1443C231.294 56.1155 231.381 56.294 232.276 55.429Z" fill="var(--fill-0, white)"/>
<path id="Vector_19" d="M376.394 98.5646C377.404 98.7865 378.742 99.3595 378.671 100.53C377.741 100.161 376.861 99.7741 376.207 99.0274L376.394 98.5646Z" fill="var(--fill-0, white)"/>
<path id="Vector_20" d="M258.24 160.471C259.117 160.374 262.705 160.713 263.885 160.747C264.225 161.251 264.273 161.838 264.302 162.442C264.491 166.385 264.939 172.635 259.094 171.962C257.407 171.767 256.89 171.593 255.654 170.401C255.512 169.93 255.512 169.841 255.441 169.353L255.855 168.984C257.136 168.866 258.841 169.725 260.446 170L260.82 169.728C261.171 169.001 261.366 168.766 261.284 167.961C260.317 167.601 258.561 168.602 257.536 168.143C253.638 166.399 254.99 162.088 258.24 160.471ZM260.174 166.151C261.131 165.921 261.719 164.954 261.482 163.997C261.242 163.041 260.269 162.463 259.315 162.71C258.374 162.954 257.805 163.912 258.04 164.855C258.277 165.799 259.228 166.377 260.174 166.151Z" fill="var(--fill-0, white)"/>
<path id="Vector_21" d="M218.145 160.504C219.13 160.426 222.967 160.779 224.409 160.821C224.645 162.417 224.566 166.326 224.41 167.966C223.666 168.242 222.751 168.082 221.897 168.037C220.858 167.606 217.229 169.028 216.143 166.892C214.845 164.339 215.923 161.915 218.145 160.504ZM220.126 166.168C220.772 166.123 221.34 165.725 221.603 165.132C221.865 164.54 221.777 163.851 221.376 163.342C220.974 162.834 220.325 162.589 219.688 162.707C218.776 162.875 218.155 163.725 218.271 164.645C218.387 165.564 219.202 166.233 220.126 166.168Z" fill="var(--fill-0, white)"/>
<path id="Vector_22" d="M199.308 156.769C200.283 156.943 201.377 156.886 202.378 156.88L202.308 165.949C203.396 165.883 204.612 165.686 205.583 166.068C206.185 166.927 205.98 166.754 205.954 168.055C203.625 168.07 201.493 168.075 199.165 168.242C199.168 164.84 199.037 160.059 199.308 156.769Z" fill="var(--fill-0, white)"/>
<path id="Vector_23" d="M246.072 160.602C246.723 160.623 247.754 160.973 248.188 160.949C252.06 160.739 254.701 160.267 254.271 165.331C254.155 166.683 253.974 167.573 252.919 168.643L252.113 168.466C251.367 167.46 251.504 166.106 251.522 164.899C251.546 163.953 251.638 163.631 251.225 162.824C250.489 162.411 250.497 162.461 249.691 162.546C247.595 164.205 249.203 167.533 247.369 168.451C245.495 167.714 246.117 162.698 246.072 160.602Z" fill="var(--fill-0, white)"/>
<path id="Vector_24" d="M232.37 160.681C233.665 160.655 237.803 160.851 239.027 161.03C241.188 161.347 241.336 167.849 238.876 168.381C237.684 167.399 237.95 166.325 237.972 164.899C238.009 164.241 237.94 163.936 237.842 163.299C237.36 162.662 237.236 162.375 236.49 162.085C234.45 162.584 235.511 166.677 234.274 168.299C231.86 168.454 232.468 162.738 232.37 160.681Z" fill="var(--fill-0, white)"/>
<path id="Vector_25" d="M208.677 168.003C206.608 167.188 205.831 164.994 206.658 162.992C207.116 161.873 208.028 161.001 209.166 160.593C210.768 160.003 211.817 160.574 213.197 161.258C213.884 162.215 214.536 162.898 214.452 164.02C212.805 165.821 209.964 163.673 208.853 165.177C209.232 166.611 209.769 166.492 211.068 166.826C210.393 167.64 209.804 167.247 208.677 168.003Z" fill="var(--fill-0, white)"/>
<path id="Vector_26" d="M231.59 160.208C231.618 160.543 231.499 161.495 231.462 161.88C230.643 163.013 230.447 162.478 229.099 163.465C228.458 164.523 228.771 166.311 228.59 167.873C227.94 168.292 226.538 168.144 225.685 168.134C225.814 165.894 225.64 163.8 225.852 161.482C226.716 160.375 228.549 161.672 231.274 160.363L231.59 160.208Z" fill="var(--fill-0, white)"/>
<path id="Vector_27" d="M242.226 160.413C242.988 160.431 243.291 160.375 243.963 160.745C244.957 162.062 244.472 166.274 244.459 168.144C243.668 168.157 242.838 168.286 242.226 167.848C241.965 166.314 242.013 161.979 242.226 160.413Z" fill="var(--fill-0, white)"/>
<path id="Vector_28" d="M211.068 166.826C211.912 166.175 212.722 165.743 213.813 166.012L214.018 166.511C213.587 167.405 212.903 167.723 212.058 168.295C210.9 168.231 209.822 168.2 208.677 168.003C209.804 167.247 210.393 167.64 211.068 166.826Z" fill="var(--fill-0, white)"/>
<path id="Vector_29" d="M242.833 156.241C243.329 156.102 243.858 156.252 244.209 156.63C244.557 157.007 244.665 157.548 244.488 158.031C244.309 158.513 243.877 158.856 243.365 158.917C242.656 159.003 242 158.528 241.861 157.826C241.721 157.125 242.145 156.434 242.833 156.241Z" fill="var(--fill-0, white)"/>
<path id="Vector_30" d="M130.502 186.228C130.72 186.744 130.67 186.792 130.66 187.364C130.193 188.156 129.561 188.314 128.698 188.71L128.608 188.165C129.236 187.516 129.867 186.87 130.502 186.228Z" fill="var(--fill-0, white)"/>
<path id="Vector_31" d="M114.1 199.94C114.207 200.038 114.344 200.305 114.428 200.446C114.111 201.416 113.425 201.87 112.646 202.577L112.392 202.315C112.357 201.572 113.465 200.648 114.1 199.94Z" fill="var(--fill-0, white)"/>
<path id="Vector_32" d="M344.943 196.302C346.185 196.743 347.097 197.318 347.405 198.653C346.222 198.148 345.241 197.624 344.943 196.302Z" fill="var(--fill-0, white)"/>
<path id="Vector_33" d="M242.105 225.593C245.843 225.169 246.567 227.183 247.35 230.193C245.953 230.124 242.936 229.834 241.742 230.195C241.476 230.952 241.489 230.564 241.802 231.392C243.204 232.541 244.304 231.025 246.549 231.025C246.947 231.7 246.871 231.342 246.752 232.143C246.117 232.931 245.221 233.329 244.267 233.614C238.668 235.285 235.887 227.138 242.105 225.593Z" fill="var(--fill-0, white)"/>
<path id="Vector_34" d="M212.97 225.664C216.116 225.96 216.4 226.816 216.333 230.103C216.31 231.255 216.33 232.554 216.351 233.716C215.407 233.664 214.432 233.653 213.484 233.629C213.579 231.297 214.291 228.701 211.85 227.757C210.339 229.987 211.603 232.301 210.692 233.608C209.94 233.698 209.419 233.867 208.802 233.482C207.666 231.837 208.001 228.413 208.279 226.481C208.453 225.277 211.495 226.413 212.97 225.664Z" fill="var(--fill-0, white)"/>
<path id="Vector_35" d="M225.729 225.609C227.683 225.422 228.248 225.651 229.982 226.373C230.472 227.48 230.966 228.943 231.391 230.1C229.793 230.092 227.061 229.805 225.638 230.187L225.457 230.627C226.585 233.084 228.276 231.226 230.503 230.902L230.909 231.402C230.681 232.546 229.573 233.311 228.5 233.532C224.677 234.312 223.543 232.662 222.715 229.555C223.446 227.504 223.691 226.521 225.729 225.609Z" fill="var(--fill-0, white)"/>
<path id="Vector_36" d="M203.805 221.927C204.785 221.927 205.188 221.935 206.15 222.098C206.285 222.217 206.42 222.336 206.555 222.452C206.866 225.369 206.557 230.451 206.78 233.213L206.81 233.574C206.068 233.698 204.416 233.682 203.597 233.695C203.583 231.35 203.417 223.957 203.805 221.927Z" fill="var(--fill-0, white)"/>
<path id="Vector_37" d="M250.605 225.63C250.835 225.612 251.067 225.596 251.299 225.585C252.442 225.527 253.041 225.522 253.839 226.234L253.826 226.832C253.093 227.741 252.189 227.538 251.143 228.147C251.947 229.325 253.489 228.527 254.606 230.564C254.698 232.615 252.827 233.495 251.03 233.643C249.838 233.598 249.364 233.622 248.194 233.3C247.756 232.81 247.806 232.646 247.717 231.987C248.913 230.664 250.326 232.143 251.649 231.687C251.33 230.757 249.346 230.05 248.265 228.548C247.907 226.803 249.071 226.152 250.605 225.63Z" fill="var(--fill-0, white)"/>
<path id="Vector_38" d="M256.172 223.516C260.154 223.574 260.207 226.413 259.126 229.449C258.617 230.878 258.754 231.998 258.799 233.49C258.014 233.656 256.651 233.608 255.797 233.616C256.1 228.305 254.453 228.242 256.172 223.516Z" fill="var(--fill-0, white)"/>
<path id="Vector_39" d="M218.425 223.522C219.631 223.53 219.876 223.458 220.608 224.22C222.909 226.613 220.764 229.144 220.825 231.79C220.838 232.346 220.785 233.007 220.766 233.569L217.897 233.637C217.981 230.62 218.221 229.708 216.927 227.038C217.434 225.696 217.782 224.803 218.425 223.522Z" fill="var(--fill-0, white)"/>
<path id="Vector_40" d="M237.505 225.606L237.966 225.815C238.33 226.766 238.22 227.391 237.589 228.121C236.746 228.218 236.553 228.258 235.736 228.487C233.877 230.353 235.411 231.176 234.66 233.405C234.021 233.795 233.263 233.621 232.482 233.556C232.468 232.066 232.157 227.82 232.579 226.766C233.395 225.96 235.791 226.207 237.505 225.606Z" fill="var(--fill-0, white)"/>
<path id="Vector_41" d="M171.603 239.805C171.716 239.815 172.051 239.992 172.174 240.052L172.115 240.503C171.563 241.231 170.971 241.484 170.181 241.942C169.796 241.839 169.978 241.948 169.69 241.544C169.993 240.872 170.973 240.276 171.603 239.805Z" fill="var(--fill-0, white)"/>
<path id="Vector_42" d="M150.32 255.79C151.136 256.069 152.35 256.357 152.864 256.973C152.043 257.369 151.696 257.192 150.699 257.137C149.984 257.227 150.445 257.69 149.074 257.651C149.128 257.018 149.865 256.322 150.32 255.79Z" fill="var(--fill-0, white)"/>
<path id="Vector_43" d="M143.879 280.753C144.672 280.929 146.506 282.885 147.07 283.623C144.884 283.913 144.502 282.471 143.879 280.753Z" fill="var(--fill-0, white)"/>
<path id="Vector_44" d="M100.413 233.366L100.871 233.656C101.268 234.684 101.122 235.701 101.081 236.826L100.5 236.521C100.096 235.469 100.307 234.515 100.413 233.366Z" fill="var(--fill-0, white)"/>
</g>
</svg>
