<svg width="27.625" height="24.4369" overflow="visible" style="display: block;" viewBox="0 0 27.625 24.4369" fill="none" xmlns="http://www.w3.org/2000/svg">
<path id="Vector" d="M25.5 0H2.125C1.56141 0 1.02091 0.223883 0.622398 0.622398C0.223883 1.02091 0 1.56141 0 2.125V23.375C9.66772e-05 23.5561 0.0464771 23.7342 0.134738 23.8923C0.222999 24.0504 0.350211 24.1833 0.504297 24.2785C0.658382 24.3736 0.834228 24.4278 1.01514 24.4359C1.19605 24.4439 1.37602 24.4056 1.53797 24.3246L5.3125 22.4373L9.08703 24.3246C9.23464 24.3985 9.39744 24.4369 9.5625 24.4369C9.72756 24.4369 9.89036 24.3985 10.038 24.3246L13.8125 22.4373L17.587 24.3246C17.7346 24.3985 17.8974 24.4369 18.0625 24.4369C18.2276 24.4369 18.3904 24.3985 18.538 24.3246L22.3125 22.4373L26.087 24.3246C26.249 24.4056 26.4289 24.4439 26.6099 24.4359C26.7908 24.4278 26.9666 24.3736 27.1207 24.2785C27.2748 24.1833 27.402 24.0504 27.4903 23.8923C27.5785 23.7342 27.6249 23.5561 27.625 23.375V2.125C27.625 1.56141 27.4011 1.02091 27.0026 0.622398C26.6041 0.223883 26.0636 0 25.5 0ZM25.5 21.6564L22.788 20.2991C22.6404 20.2252 22.4776 20.1867 22.3125 20.1867C22.1474 20.1867 21.9846 20.2252 21.837 20.2991L18.0625 22.1877L14.288 20.2991C14.1404 20.2252 13.9776 20.1867 13.8125 20.1867C13.6474 20.1867 13.4846 20.2252 13.337 20.2991L9.5625 22.1877L5.78797 20.2991C5.64036 20.2252 5.47756 20.1867 5.3125 20.1867C5.14744 20.1867 4.98464 20.2252 4.83703 20.2991L2.125 21.6564V2.125H25.5V21.6564ZM14.875 9.5625C14.875 9.28071 14.9869 9.01046 15.1862 8.8112C15.3855 8.61194 15.6557 8.5 15.9375 8.5H22.3125C22.5943 8.5 22.8645 8.61194 23.0638 8.8112C23.2631 9.01046 23.375 9.28071 23.375 9.5625C23.375 9.84429 23.2631 10.1145 23.0638 10.3138C22.8645 10.5131 22.5943 10.625 22.3125 10.625H15.9375C15.6557 10.625 15.3855 10.5131 15.1862 10.3138C14.9869 10.1145 14.875 9.84429 14.875 9.5625ZM14.875 13.8125C14.875 13.5307 14.9869 13.2605 15.1862 13.0612C15.3855 12.8619 15.6557 12.75 15.9375 12.75H22.3125C22.5943 12.75 22.8645 12.8619 23.0638 13.0612C23.2631 13.2605 23.375 13.5307 23.375 13.8125C23.375 14.0943 23.2631 14.3645 23.0638 14.5638C22.8645 14.7631 22.5943 14.875 22.3125 14.875H15.9375C15.6557 14.875 15.3855 14.7631 15.1862 14.5638C14.9869 14.3645 14.875 14.0943 14.875 13.8125ZM5.3125 17H11.6875C11.9693 17 12.2395 16.8881 12.4388 16.6888C12.6381 16.4895 12.75 16.2193 12.75 15.9375V7.4375C12.75 7.15571 12.6381 6.88546 12.4388 6.6862C12.2395 6.48694 11.9693 6.375 11.6875 6.375H5.3125C5.03071 6.375 4.76046 6.48694 4.5612 6.6862C4.36194 6.88546 4.25 7.15571 4.25 7.4375V15.9375C4.25 16.2193 4.36194 16.4895 4.5612 16.6888C4.76046 16.8881 5.03071 17 5.3125 17ZM6.375 8.5H10.625V14.875H6.375V8.5Z" fill="var(--fill-0, #34626F)"/>
</svg>
