<svg width="34.7234" height="32" overflow="visible" style="display: block;" viewBox="0 0 34.7234 32" fill="none" xmlns="http://www.w3.org/2000/svg">
<path id="Vector" d="M0.0374473 10.2826C0.0128998 10.3707 0.000304978 10.4617 5.82877e-07 10.5532V13.2766C-0.000437959 14.3097 0.246591 15.3279 0.720411 16.2459C1.19423 17.1639 1.88106 17.9551 2.72341 18.5532V30.9787C2.72341 31.2496 2.831 31.5093 3.02253 31.7009C3.21406 31.8924 3.47382 32 3.74468 32H30.9787C31.2496 32 31.5094 31.8924 31.7009 31.7009C31.8924 31.5093 32 31.2496 32 30.9787V18.5532C32.8423 17.9551 33.5292 17.1639 34.003 16.2459C34.4768 15.3279 34.7238 14.3097 34.7234 13.2766V10.5532C34.7235 10.4588 34.7103 10.3648 34.6843 10.274L32.2434 1.72766C32.0995 1.23173 31.7993 0.795584 31.3873 0.484243C30.9754 0.172901 30.4738 0.00304508 29.9574 0H4.76596C4.2496 0.00304508 3.74805 0.172901 3.3361 0.484243C2.92415 0.795584 2.62386 1.23173 2.48 1.72766L0.0374473 10.2826ZM4.44426 2.28255C4.46553 2.21362 4.50816 2.15324 4.56598 2.1101C4.6238 2.06697 4.69382 2.04331 4.76596 2.04255H29.9574C30.0313 2.04266 30.1032 2.0668 30.1621 2.11132C30.2211 2.15584 30.2639 2.21833 30.2843 2.28936L32.3489 9.53191H2.38298L4.44426 2.28255ZM12.9362 11.5745H21.7872V13.2766C21.7872 14.4503 21.321 15.576 20.491 16.4059C19.6611 17.2359 18.5354 17.7021 17.3617 17.7021C16.188 17.7021 15.0623 17.2359 14.2324 16.4059C13.4024 15.576 12.9362 14.4503 12.9362 13.2766V11.5745ZM2.04255 11.5745H10.8936V13.2766C10.8945 14.0403 10.6977 14.7913 10.3223 15.4565C9.94701 16.1216 9.40593 16.6783 8.75172 17.0724C8.09751 17.4665 7.35244 17.6846 6.58898 17.7055C5.82552 17.7263 5.06965 17.5493 4.39489 17.1915C4.31107 17.12 4.21623 17.0625 4.11404 17.0213C3.48029 16.6232 2.95785 16.0709 2.59558 15.416C2.2333 14.7611 2.04303 14.025 2.04255 13.2766V11.5745ZM29.9574 29.9574H4.76596V19.5166C6.09606 19.8785 7.507 19.806 8.79301 19.3097C10.079 18.8133 11.1728 17.9191 11.9149 16.7574C12.4986 17.673 13.3036 18.4266 14.2557 18.9487C15.2077 19.4708 16.2759 19.7445 17.3617 19.7445C18.4475 19.7445 19.5157 19.4708 20.4678 18.9487C21.4198 18.4266 22.2248 17.673 22.8085 16.7574C23.5506 17.9191 24.6444 18.8133 25.9304 19.3097C27.2164 19.806 28.6273 19.8785 29.9574 19.5166V29.9574ZM30.6094 17.0213C30.5072 17.0625 30.4123 17.12 30.3285 17.1915C29.6538 17.5493 28.8979 17.7263 28.1344 17.7055C27.371 17.6846 26.6259 17.4665 25.9717 17.0724C25.3175 16.6783 24.7764 16.1216 24.4011 15.4565C24.0257 14.7913 23.8289 14.0403 23.8298 13.2766V11.5745H32.6809V13.2766C32.6804 14.025 32.4901 14.7611 32.1278 15.416C31.7656 16.0709 31.2431 16.6232 30.6094 17.0213Z" fill="url(#paint0_linear_0_15)"/>
<defs>
<linearGradient id="paint0_linear_0_15" x1="34.7234" y1="16" x2="0" y2="16" gradientUnits="userSpaceOnUse">
<stop stop-color="#34626F"/>
<stop offset="1" stop-color="#1F353E"/>
</linearGradient>
</defs>
</svg>
