<svg width="22.3125" height="21.4539" overflow="visible" style="display: block;" viewBox="0 0 22.3125 21.4539" fill="none" xmlns="http://www.w3.org/2000/svg">
<path id="Vector" d="M20.7812 5.26637H12.74L16.87 1.13637C16.9859 1.01197 17.049 0.847426 17.046 0.677413C17.043 0.507399 16.9742 0.345187 16.8539 0.224951C16.7337 0.104714 16.5715 0.0358414 16.4015 0.0328417C16.2314 0.0298421 16.0669 0.0929498 15.9425 0.20887L11.1562 4.99403L6.37 0.20887C6.30992 0.144394 6.23747 0.0926795 6.15697 0.0568115C6.07647 0.0209436 5.98957 0.00165682 5.90146 0.000102131C5.81334 -0.00145256 5.72582 0.0147565 5.6441 0.0477624C5.56239 0.0807683 5.48816 0.129895 5.42584 0.192211C5.36353 0.254528 5.3144 0.328757 5.28139 0.410472C5.24839 0.492187 5.23218 0.579712 5.23373 0.667827C5.23529 0.755942 5.25457 0.842841 5.29044 0.923341C5.32631 1.00384 5.37802 1.07629 5.4425 1.13637L9.5725 5.26637H1.53125C1.12514 5.26637 0.735658 5.4277 0.448493 5.71486C0.161328 6.00203 0 6.39151 0 6.79762V19.9226C0 20.3287 0.161328 20.7182 0.448493 21.0054C0.735658 21.2925 1.12514 21.4539 1.53125 21.4539H20.7812C21.1874 21.4539 21.5768 21.2925 21.864 21.0054C22.1512 20.7182 22.3125 20.3287 22.3125 19.9226V6.79762C22.3125 6.39151 22.1512 6.00203 21.864 5.71486C21.5768 5.4277 21.1874 5.26637 20.7812 5.26637ZM21 19.9226C21 19.9806 20.977 20.0363 20.9359 20.0773C20.8949 20.1183 20.8393 20.1414 20.7812 20.1414H1.53125C1.47323 20.1414 1.41759 20.1183 1.37657 20.0773C1.33555 20.0363 1.3125 19.9806 1.3125 19.9226V6.79762C1.3125 6.7396 1.33555 6.68396 1.37657 6.64294C1.41759 6.60192 1.47323 6.57887 1.53125 6.57887H20.7812C20.8393 6.57887 20.8949 6.60192 20.9359 6.64294C20.977 6.68396 21 6.7396 21 6.79762V19.9226Z" fill="var(--fill-0, white)"/>
</svg>
