<svg width="22.3125" height="20.5625" overflow="visible" style="display: block;" viewBox="0 0 22.3125 20.5625" fill="none" xmlns="http://www.w3.org/2000/svg">
<path id="Vector" d="M0.0240628 6.60734C0.00828914 6.66397 0.000195972 6.72247 3.74544e-07 6.78125V8.53125C-0.000281423 9.19509 0.158454 9.84935 0.46292 10.4392C0.767387 11.0292 1.20873 11.5375 1.75 11.9219V19.9062C1.75 20.0803 1.81914 20.2472 1.94221 20.3703C2.06528 20.4934 2.2322 20.5625 2.40625 20.5625H19.9063C20.0803 20.5625 20.2472 20.4934 20.3703 20.3703C20.4934 20.2472 20.5625 20.0803 20.5625 19.9062V11.9219C21.1038 11.5375 21.5451 11.0292 21.8496 10.4392C22.154 9.84935 22.3128 9.19509 22.3125 8.53125V6.78125C22.3126 6.72057 22.3041 6.66019 22.2873 6.60188L20.7189 1.11016C20.6265 0.791485 20.4335 0.511225 20.1688 0.311164C19.9041 0.111103 19.5818 0.0019567 19.25 0H3.0625C2.7307 0.0019567 2.40842 0.111103 2.1437 0.311164C1.87899 0.511225 1.68603 0.791485 1.59359 1.11016L0.0240628 6.60734ZM2.85578 1.46672C2.86945 1.42243 2.89684 1.38362 2.934 1.3559C2.97115 1.32819 3.01615 1.31299 3.0625 1.3125H19.25C19.2975 1.31257 19.3436 1.32808 19.3815 1.35669C19.4194 1.3853 19.4469 1.42545 19.46 1.47109L20.7867 6.125H1.53125L2.85578 1.46672ZM8.3125 7.4375H14V8.53125C14 9.28546 13.7004 10.0088 13.1671 10.5421C12.6338 11.0754 11.9105 11.375 11.1563 11.375C10.402 11.375 9.67872 11.0754 9.14542 10.5421C8.61211 10.0088 8.3125 9.28546 8.3125 8.53125V7.4375ZM1.3125 7.4375H7V8.53125C7.00056 9.02202 6.87409 9.50457 6.63291 9.93199C6.39173 10.3594 6.04404 10.7171 5.62366 10.9704C5.20328 11.2236 4.72452 11.3638 4.23393 11.3772C3.74335 11.3906 3.25765 11.2768 2.82406 11.0469C2.7702 11.0009 2.70926 10.964 2.64359 10.9375C2.23636 10.6817 1.90065 10.3268 1.66786 9.90596C1.43507 9.48515 1.31281 9.01216 1.3125 8.53125V7.4375ZM19.25 19.25H3.0625V12.5409C3.9172 12.7735 4.82384 12.7269 5.65019 12.408C6.47655 12.089 7.1794 11.5144 7.65625 10.768C8.03132 11.3563 8.54862 11.8406 9.16037 12.176C9.77211 12.5115 10.4586 12.6874 11.1563 12.6874C11.8539 12.6874 12.5404 12.5115 13.1521 12.176C13.7639 11.8406 14.2812 11.3563 14.6563 10.768C15.1331 11.5144 15.836 12.089 16.6623 12.408C17.4887 12.7269 18.3953 12.7735 19.25 12.5409V19.25ZM19.6689 10.9375C19.6032 10.964 19.5423 11.0009 19.4884 11.0469C19.0549 11.2768 18.5691 11.3906 18.0786 11.3772C17.588 11.3638 17.1092 11.2236 16.6888 10.9704C16.2685 10.7171 15.9208 10.3594 15.6796 9.93199C15.4384 9.50457 15.3119 9.02202 15.3125 8.53125V7.4375H21V8.53125C20.9997 9.01216 20.8774 9.48515 20.6446 9.90596C20.4118 10.3268 20.0761 10.6817 19.6689 10.9375Z" fill="var(--fill-0, white)"/>
</svg>
