<svg width="33.4884" height="32" overflow="visible" style="display: block;" viewBox="0 0 33.4884 32" fill="none" xmlns="http://www.w3.org/2000/svg">
<path id="Vector" d="M31.1902 7.85517H19.1212L25.3198 1.69498C25.4938 1.50942 25.5885 1.264 25.584 1.01041C25.5795 0.756822 25.4762 0.514872 25.2957 0.33553C25.1152 0.156189 24.8718 0.0534601 24.6166 0.0489858C24.3614 0.0445116 24.1145 0.138641 23.9278 0.311544L16.7442 7.44895L9.5606 0.311544C9.47043 0.215374 9.36169 0.138238 9.24087 0.0847385C9.12005 0.0312389 8.98963 0.00247126 8.85738 0.000152336C8.72513 -0.00216659 8.59376 0.0220104 8.47112 0.0712411C8.34847 0.120472 8.23706 0.193747 8.14353 0.286697C8.05 0.379646 7.97627 0.490365 7.92673 0.612249C7.8772 0.734132 7.85287 0.864682 7.8552 0.996112C7.85753 1.12754 7.88648 1.25716 7.94031 1.37723C7.99415 1.4973 8.07177 1.60537 8.16854 1.69498L14.3672 7.85517H2.29822C1.6887 7.85517 1.10413 8.0958 0.673134 8.52413C0.242133 8.95246 0 9.5334 0 10.1391V29.716C0 30.3218 0.242133 30.9027 0.673134 31.331C1.10413 31.7594 1.6887 32 2.29822 32H31.1902C31.7997 32 32.3842 31.7594 32.8152 31.331C33.2462 30.9027 33.4884 30.3218 33.4884 29.716V10.1391C33.4884 9.5334 33.2462 8.95246 32.8152 8.52413C32.3842 8.0958 31.7997 7.85517 31.1902 7.85517ZM31.5185 29.716C31.5185 29.8026 31.4839 29.8856 31.4223 29.9467C31.3607 30.0079 31.2772 30.0423 31.1902 30.0423H2.29822C2.21115 30.0423 2.12764 30.0079 2.06607 29.9467C2.00449 29.8856 1.9699 29.8026 1.9699 29.716V10.1391C1.9699 10.0526 2.00449 9.96962 2.06607 9.90843C2.12764 9.84724 2.21115 9.81286 2.29822 9.81286H31.1902C31.2772 9.81286 31.3607 9.84724 31.4223 9.90843C31.4839 9.96962 31.5185 10.0526 31.5185 10.1391V29.716Z" fill="url(#paint0_linear_0_62)"/>
<defs>
<linearGradient id="paint0_linear_0_62" x1="33.4884" y1="16" x2="0" y2="16" gradientUnits="userSpaceOnUse">
<stop stop-color="#34626F"/>
<stop offset="1" stop-color="#1F353E"/>
</linearGradient>
</defs>
</svg>
